<svg width="49" height="42" viewBox="0 0 49 42" fill="none" xmlns="http://www.w3.org/2000/svg">
<path d="M6.59 31.298V8.252L3.968 10.23C3.66133 10.4447 3.324 10.552 2.956 10.552C2.404 10.552 1.944 10.3527 1.576 9.954L0.426 8.574C0.180667 8.23666 0.0580001 7.89933 0.0580001 7.562C0.0580001 7.04066 0.272667 6.61133 0.702 6.274L6.636 1.766C7.61733 1.06067 8.49133 0.707999 9.258 0.707999H10.408C10.868 0.707999 11.2207 0.861332 11.466 1.168C11.742 1.47466 11.88 1.858 11.88 2.318V31.298C11.88 31.758 11.7113 32.1567 11.374 32.494C11.0367 32.8313 10.638 33 10.178 33H8.292C7.832 33 7.43333 32.8313 7.096 32.494C6.75867 32.1567 6.59 31.758 6.59 31.298ZM16.5392 41H16.4592C16.0859 40.7867 15.8992 40.52 15.8992 40.2L15.9792 39.88L28.8192 5.44C28.9526 5.06667 29.2059 4.88 29.5792 4.88C29.6059 4.88 29.7259 4.90667 29.9392 4.96C30.3126 5.09333 30.4992 5.36 30.4992 5.76C30.4992 5.92 30.4859 6.01333 30.4592 6.04L17.6192 40.52C17.4859 40.8933 17.2326 41.08 16.8592 41.08L16.5392 41ZM34.187 31.04H47.227C47.6004 31.04 47.8537 31.2 47.987 31.52C48.147 31.84 48.147 32.1733 47.987 32.52C47.8537 32.84 47.6004 33 47.227 33H32.307C31.5604 33 31.187 32.6933 31.187 32.08C31.187 31.76 31.4537 31.3333 31.987 30.8C33.7204 29.0667 35.0804 27.6667 36.067 26.6C37.187 25.3733 38.4804 23.8667 39.947 22.08C41.547 20.16 42.7337 18.36 43.507 16.68C45.2137 13.08 45.147 10.28 43.307 8.28C42.3737 7.26667 41.0537 6.76 39.347 6.76C36.6004 6.76 34.8137 8.04 33.987 10.6C33.7737 11.2133 33.427 11.52 32.947 11.52C32.9204 11.52 32.8804 11.52 32.827 11.52C32.7737 11.4933 32.7337 11.48 32.707 11.48C32.1737 11.4 31.907 11.0667 31.907 10.48C31.907 10.2933 31.9204 10.1733 31.947 10.12C32.3737 8.49333 33.3204 7.17333 34.787 6.16C36.2004 5.17333 37.7604 4.68 39.467 4.68C41.867 4.68 43.707 5.36 44.987 6.72C46.267 8.13333 46.907 9.74667 46.907 11.56C46.907 13 46.5204 14.6133 45.747 16.4C45.027 18.1067 44.1604 19.68 43.147 21.12C42.2137 22.48 41.0404 23.9467 39.627 25.52C38.4537 26.8267 37.4004 27.9467 36.467 28.88C35.747 29.5467 34.987 30.2667 34.187 31.04Z" fill="#033476"/>
</svg>
