<svg width="31" height="35" viewBox="0 0 31 35" fill="none" xmlns="http://www.w3.org/2000/svg">
<path d="M30.3414 7.85563C30.2614 8.83993 30.2014 9.82421 30.0914 10.8085C29.9214 12.4139 29.6614 14.0003 29.3114 15.5866C28.9214 17.3545 28.4114 19.0842 27.7414 20.7661C27.0614 22.4767 26.2314 24.1108 25.2114 25.6684C24.0514 27.4363 22.6714 29.0418 21.0814 30.4752C19.6914 31.7271 18.1714 32.8165 16.5314 33.753C16.3414 33.8581 16.1514 33.9632 15.9714 34.0683C15.4514 34.3837 14.9114 34.3933 14.3914 34.097C13.7414 33.7243 13.0914 33.3421 12.4614 32.9407C10.8214 31.8895 9.33138 30.6663 7.99138 29.2807C6.58138 27.8186 5.38138 26.2227 4.37138 24.4835C3.28138 22.6104 2.45138 20.6419 1.80137 18.5968C1.33137 17.1156 0.961369 15.6057 0.701368 14.0863C0.521368 13.0064 0.361367 11.9266 0.231367 10.8372C0.131367 9.96756 0.0813755 9.08838 0.0213755 8.20921C0.00137551 7.94164 -0.0186147 7.6645 0.0313853 7.39692C0.181385 6.69932 0.731377 6.25018 1.49138 6.22151C2.62138 6.16418 3.66137 5.8106 4.67137 5.36146C6.05137 4.7403 7.34137 3.96624 8.61137 3.17308C10.2214 2.16967 11.9014 1.29051 13.6614 0.55468C14.1314 0.363555 14.6114 0.15332 15.1414 0.15332C15.6114 0.15332 16.0514 0.315767 16.4714 0.487779C18.0914 1.15672 19.6614 1.93078 21.1514 2.83862C22.4214 3.61267 23.7014 4.34849 25.0114 5.05565C26.0414 5.60991 27.1314 6.02084 28.3214 6.1833C28.5114 6.21196 28.7014 6.21195 28.8914 6.23106C29.7414 6.25973 30.3814 6.98602 30.3414 7.85563Z" fill="#78BFB9"/>
<path d="M12.4613 10.4835V14.4494C13.0213 14.0767 14.3613 13.4651 16.3613 13.4651C20.5713 13.4651 22.7213 16.0453 22.7213 19.4855C22.7213 22.6582 20.5213 25.8309 15.4713 25.85H15.2513C11.9313 25.8213 9.51133 24.407 7.61133 22.4384L10.1213 20.2309C12.1013 21.8555 13.4713 22.3906 15.2513 22.3906H15.4713C17.4213 22.3619 19.0713 21.2725 19.0713 19.2179C19.0713 17.2494 17.6213 16.1313 15.3313 16.1313C13.1813 16.1313 11.5413 17.1729 10.8713 17.6221L9.06134 16.2937V7.02417H20.8813V10.4835H12.4613Z" fill="white"/>
</svg>
