<svg width="60" height="60" viewBox="0 0 60 60" fill="none" xmlns="http://www.w3.org/2000/svg">
<path d="M13.1 26.2061C10.5093 26.2061 7.97682 25.438 5.82266 23.9988C3.66851 22.5596 1.98945 20.514 0.997761 18.1206C0.00607681 15.7273 -0.253698 13.0936 0.251282 10.5526C0.756264 8.01165 2.00332 5.67744 3.83479 3.84513C5.66626 2.01283 7.9999 0.764698 10.5407 0.258554C13.0814 -0.24759 15.7152 0.0109783 18.109 1.00157C20.5028 1.99215 22.5492 3.67028 23.9893 5.82377C25.4295 7.97727 26.1988 10.5094 26.2 13.1001C26.1968 16.574 24.8158 19.9048 22.36 22.3618C19.9041 24.8188 16.5739 26.2013 13.1 26.2061ZM13.1 1.87711C10.8794 1.87731 8.7087 2.53603 6.86248 3.76996C5.01625 5.0039 3.57742 6.75762 2.72795 8.80934C1.87847 10.8611 1.65651 13.1186 2.09015 15.2965C2.52378 17.4743 3.59353 19.4747 5.16409 21.0446C6.73466 22.6144 8.73549 23.6833 10.9135 24.1159C13.0916 24.5486 15.3491 24.3256 17.4004 23.4753C19.4517 22.6249 21.2048 21.1853 22.4379 19.3385C23.671 17.4917 24.3288 15.3207 24.328 13.1001C24.3235 10.1241 23.139 7.27134 21.0341 5.16745C18.9293 3.06356 16.076 1.88028 13.1 1.87711Z" fill="white"/>
<path d="M4.725 25.8511C4.97377 25.8511 5.21236 25.9499 5.38827 26.1258C5.56418 26.3017 5.663 26.5403 5.663 26.7891V49.9091H8.535C9.21824 48.8898 10.2122 48.1182 11.369 47.7091V40.1091C11.3689 39.9858 11.393 39.8638 11.4401 39.7499C11.4872 39.6361 11.5563 39.5326 11.6434 39.4455C11.7306 39.3584 11.834 39.2893 11.9479 39.2422C12.0617 39.1951 12.1838 39.1709 12.307 39.1711H16.424V29.3711C16.4239 29.2479 16.448 29.126 16.495 29.0122C16.5421 28.8984 16.6111 28.795 16.6981 28.7078C16.7851 28.6207 16.8884 28.5516 17.0022 28.5045C17.1159 28.4573 17.2379 28.4331 17.361 28.4331H27.471C27.5941 28.4331 27.7161 28.4573 27.8298 28.5045C27.9436 28.5516 28.0469 28.6207 28.1339 28.7078C28.2209 28.795 28.2899 28.8984 28.337 29.0122C28.384 29.126 28.4081 29.2479 28.408 29.3711V39.1711H32.526C32.6491 39.1711 32.7711 39.1953 32.8848 39.2425C32.9986 39.2896 33.1019 39.3587 33.1889 39.4458C33.2759 39.533 33.3449 39.6364 33.392 39.7502C33.439 39.864 33.4631 39.9859 33.463 40.1091V49.9091H39.17V23.3521H25.97C25.7267 23.3441 25.4959 23.2418 25.3266 23.0669C25.1573 22.892 25.0626 22.658 25.0626 22.4146C25.0626 22.1711 25.1573 21.9371 25.3266 21.7622C25.4959 21.5873 25.7267 21.485 25.97 21.4771H40.108C40.3565 21.4771 40.5948 21.5758 40.7706 21.7515C40.9463 21.9272 41.045 22.1655 41.045 22.4141V27.8001C41.069 27.8001 41.09 27.7931 41.114 27.7931H45.177C49.1073 27.7976 52.8752 29.361 55.6542 32.1403C58.4331 34.9196 59.996 38.6878 60 42.6181V49.8411C59.9995 50.3564 59.7945 50.8504 59.43 51.2147C59.0655 51.579 58.5713 51.7838 58.056 51.7841H55.428C55.7181 53.0216 55.5819 54.3209 55.0414 55.4715C54.5009 56.622 53.5878 57.5563 52.45 58.1231H59.062C59.3108 58.1231 59.5494 58.2219 59.7253 58.3978C59.9012 58.5737 60 58.8123 60 59.0611C60 59.3098 59.9012 59.5484 59.7253 59.7243C59.5494 59.9002 59.3108 59.9991 59.062 59.9991H4.725C4.47623 59.9991 4.23764 59.9002 4.06173 59.7243C3.88582 59.5484 3.787 59.3098 3.787 59.0611C3.787 58.8123 3.88582 58.5737 4.06173 58.3978C4.23764 58.2219 4.47623 58.1231 4.725 58.1231H10.7C9.5622 57.5563 8.64909 56.622 8.10859 55.4715C7.56809 54.3209 7.43187 53.0216 7.722 51.7841H4.722C4.59887 51.7842 4.47691 51.76 4.36312 51.713C4.24932 51.666 4.14591 51.597 4.0588 51.51C3.97168 51.4229 3.90257 51.3196 3.85542 51.2059C3.80827 51.0921 3.784 50.9702 3.784 50.8471V26.7891C3.784 26.6656 3.80836 26.5434 3.85569 26.4294C3.90301 26.3154 3.97238 26.2119 4.0598 26.1247C4.14721 26.0376 4.25097 25.9686 4.36512 25.9216C4.47927 25.8746 4.60157 25.8507 4.725 25.8511ZM13.245 47.3831H13.255C14.0529 47.3841 14.8416 47.554 15.5692 47.8814C16.2969 48.2089 16.947 48.6866 17.477 49.2831H21.477V41.0431H13.244L13.245 47.3831ZM26.533 30.3001H18.3V38.5331H26.533V30.3001ZM31.588 41.0401H23.354V49.2751H31.588V41.0401ZM58.056 49.9091C58.065 49.9092 58.074 49.9075 58.0823 49.9042C58.0907 49.9008 58.0983 49.8958 58.1047 49.8895C58.1112 49.8832 58.1163 49.8756 58.1197 49.8673C58.1232 49.859 58.125 49.8501 58.125 49.8411V42.6181C58.121 39.1853 56.7556 35.8944 54.3282 33.4672C51.9008 31.04 48.6097 29.6748 45.177 29.6711H41.114C41.0959 29.671 41.0785 29.6782 41.0656 29.6909C41.0526 29.7036 41.0453 29.7209 41.045 29.7391V49.8391C41.045 49.8481 41.0468 49.857 41.0503 49.8653C41.0537 49.8736 41.0588 49.8812 41.0653 49.8875C41.0717 49.8938 41.0793 49.8988 41.0877 49.9022C41.096 49.9055 41.105 49.9072 41.114 49.9071H45.182C45.6997 49.1299 46.4013 48.4925 47.2246 48.0517C48.0478 47.6109 48.9672 47.3803 49.901 47.3803C50.8348 47.3803 51.7542 47.6109 52.5774 48.0517C53.4007 48.4925 54.1023 49.1299 54.62 49.9071L58.056 49.9091ZM53.7 53.0581C53.6998 52.542 53.5936 52.0314 53.388 51.5581C53.2102 51.4087 53.0955 51.1975 53.067 50.9671C52.5634 50.2084 51.8038 49.6562 50.9268 49.4112C50.0498 49.1662 49.1139 49.2448 48.2901 49.6326C47.4662 50.0205 46.8093 50.6917 46.4393 51.5237C46.0693 52.3557 46.0109 53.293 46.2747 54.1646C46.5386 55.0361 47.1071 55.7836 47.8764 56.2708C48.6457 56.7579 49.5646 56.9521 50.4652 56.8178C51.3658 56.6836 52.1882 56.23 52.782 55.5397C53.3759 54.8495 53.7017 53.9686 53.7 53.0581ZM47.349 58.1231C46.2107 57.557 45.2971 56.6227 44.7567 55.4719C44.2163 54.3212 44.0807 53.0216 44.372 51.7841H41.112C40.908 51.7826 40.7055 51.7488 40.512 51.684C40.3851 51.7483 40.2452 51.7825 40.103 51.7841H18.782C19.0718 53.0221 18.935 54.3217 18.3938 55.4723C17.8525 56.6229 16.9385 57.5569 15.8 58.1231H47.349ZM13.249 56.8591C14.0006 56.8591 14.7353 56.6362 15.3602 56.2186C15.9851 55.8011 16.4721 55.2076 16.7597 54.5133C17.0474 53.8189 17.1226 53.0548 16.976 52.3177C16.8294 51.5806 16.4674 50.9035 15.936 50.372C15.4046 49.8406 14.7275 49.4787 13.9903 49.3321C13.2532 49.1854 12.4892 49.2607 11.7948 49.5483C11.1004 49.8359 10.507 50.323 10.0894 50.9479C9.67187 51.5728 9.449 52.3075 9.449 53.059C9.449 53.5586 9.54749 54.0532 9.73883 54.5146C9.93017 54.9761 10.2106 55.3952 10.5641 55.7482C10.9176 56.1011 11.3372 56.3809 11.799 56.5715C12.2607 56.7621 12.7555 56.8598 13.255 56.8591H13.249Z" fill="white"/>
<path d="M45.478 42.9391C45.3547 42.9392 45.2326 42.915 45.1187 42.8678C45.0047 42.8207 44.9012 42.7515 44.8141 42.6643C44.7269 42.577 44.6579 42.4735 44.6108 42.3595C44.5638 42.2455 44.5397 42.1234 44.54 42.0001V33.7881C44.54 33.6649 44.5643 33.5429 44.6114 33.4291C44.6585 33.3153 44.7276 33.2119 44.8147 33.1248C44.9018 33.0377 45.0052 32.9686 45.119 32.9215C45.2328 32.8743 45.3548 32.8501 45.478 32.8501C47.8205 32.8527 50.0662 33.7844 51.7227 35.4406C53.3792 37.0969 54.3111 39.3426 54.314 41.6851C54.2954 41.7896 54.2954 41.8966 54.314 42.0011C54.3141 42.1243 54.29 42.2463 54.2429 42.3602C54.1958 42.474 54.1267 42.5775 54.0396 42.6646C53.9524 42.7518 53.849 42.8208 53.7351 42.8679C53.6212 42.915 53.4992 42.9392 53.376 42.9391H45.478ZM46.416 34.7891V41.0641H52.411C52.2679 39.4946 51.5974 38.0198 50.5087 36.8803C49.42 35.7407 47.9773 35.0036 46.416 34.7891ZM13.1 14.0411H6.342C6.09322 14.0411 5.85464 13.9422 5.67873 13.7663C5.50282 13.5904 5.404 13.3518 5.404 13.1031C5.404 12.8543 5.50282 12.6157 5.67873 12.4398C5.85464 12.2639 6.09322 12.1651 6.342 12.1651H12.162V6.34606C12.1579 6.22037 12.1791 6.09514 12.2244 5.97781C12.2696 5.86048 12.338 5.75346 12.4255 5.66309C12.513 5.57273 12.6177 5.50087 12.7335 5.4518C12.8493 5.40273 12.9737 5.37744 13.0995 5.37744C13.2253 5.37744 13.3497 5.40273 13.4655 5.4518C13.5813 5.50087 13.686 5.57273 13.7735 5.66309C13.861 5.75346 13.9294 5.86048 13.9746 5.97781C14.0199 6.09514 14.0411 6.22037 14.037 6.34606V13.1001C14.0375 13.2234 14.0137 13.3457 13.9668 13.4599C13.92 13.574 13.851 13.6778 13.764 13.7652C13.6769 13.8526 13.5734 13.922 13.4595 13.9694C13.3456 14.0167 13.2234 14.0411 13.1 14.0411Z" fill="white"/>
</svg>
