<svg width="258" height="158" viewBox="0 0 258 158" fill="none" xmlns="http://www.w3.org/2000/svg">
<path d="M61.7683 136.825C61.7683 136.825 55.2784 130.963 55.6084 121.387C56.0284 109.366 69.2083 101.872 85.6383 100.349C59.9683 100.679 36.7384 121.928 61.7683 136.825Z" fill="#FAD744"/>
<path d="M64.2583 152.762C64.2583 152.762 64.7883 145.335 93.6882 141.367C78.7982 141.63 61.1583 145.589 64.2583 152.762Z" fill="#FAD744"/>
<path d="M186.618 125.718C186.618 125.718 189.238 123.561 192.888 124.094C196.538 124.627 192.708 129.668 190.178 132.68C187.648 135.7 187.018 139.21 187.018 139.21C187.018 139.21 191.198 133.348 194.268 131.318C197.338 129.296 198.888 125.921 197.258 123.4C195.158 120.135 188.508 122.833 186.618 125.718Z" fill="#FAD744"/>
<path d="M134.428 153.896C134.428 153.896 156.358 149.234 170.668 155.266C168.098 152.635 150.048 146.223 134.428 153.896Z" fill="#FAD744"/>
<path d="M34.4783 7.39006C33.0183 5.96043 31.0883 5.2583 28.5783 5.2583C23.4483 5.2583 19.2983 6.44261 16.2184 8.77739C13.1284 11.1206 11.6284 14.1998 11.6284 18.1842C11.6284 18.4887 11.6484 18.7763 11.6684 19.0555C11.8684 15.4687 13.3484 12.6433 16.2184 10.4693C16.8084 10.0209 17.4483 9.63178 18.1083 9.27649L18.4183 8.08372C18.5083 7.73689 18.8484 7.47465 19.2684 7.4239L29.1784 6.31572C29.4984 6.28188 29.8183 6.37494 30.0483 6.57796C30.1983 6.71331 30.2884 6.89096 30.3084 7.07706C32.0084 7.33084 33.3883 7.99913 34.4983 9.08193C36.0183 10.63 36.8383 13.1847 36.9583 16.653C36.9683 16.3908 36.9783 16.1201 36.9783 15.8579C36.9583 11.9158 36.1283 9.06501 34.4783 7.39006Z" fill="#FAD744"/>
<path d="M99.8184 21.0007C100.088 21.0007 100.218 21.3221 100.288 21.6774C100.328 21.3729 100.358 21.0684 100.358 20.7892C100.358 20.4424 100.318 19.3088 99.8184 19.3088C99.2584 19.3088 97.7484 19.791 95.7884 24.2575C94.3384 27.785 93.5984 31.2364 93.5984 34.5016C93.5984 34.7639 93.6084 35.0176 93.6284 35.263C93.7584 32.2768 94.4784 29.1469 95.7984 25.9493C97.7484 21.4829 99.2584 21.0007 99.8184 21.0007Z" fill="#FAD744"/>
<path d="M48.0983 21.9905C48.1483 21.2715 48.1783 20.544 48.1783 19.825C48.1783 19.4866 48.1683 19.1652 48.1483 18.8438C48.1183 20.0787 48.0183 21.3053 47.8483 22.5318C47.9283 22.3457 48.0183 22.1681 48.0983 21.9905Z" fill="#FAD744"/>
<path d="M103.098 25.6365C102.008 25.6365 100.998 25.3574 100.088 24.816C100.048 24.7906 100.018 24.7568 99.9884 24.7314C99.9084 25.0021 99.8184 25.2812 99.7084 25.5604C99.5784 25.9072 99.7284 26.2963 100.088 26.5078C100.998 27.0492 102.008 27.3284 103.098 27.3284C104.288 27.3284 105.328 26.8885 106.198 26.0172C107.038 25.1797 107.448 23.9616 107.448 22.3036C107.448 22.0245 107.428 21.7622 107.388 21.5C107.258 22.7097 106.878 23.6486 106.198 24.3254C105.328 25.1966 104.288 25.6365 103.098 25.6365Z" fill="#FAD744"/>
<path d="M70.2683 26.4653C70.2683 26.3638 70.2783 26.2539 70.2783 26.1524C70.2783 25.8479 70.2583 25.5434 70.2383 25.2473C70.2183 25.6533 70.2183 26.0509 70.1783 26.4569H70.2683V26.4653Z" fill="#FAD744"/>
<path d="M83.7083 26.4656L85.8484 17.8373C85.9084 17.592 85.8384 17.3297 85.6484 17.1267C85.6384 17.1182 85.6184 17.1098 85.6084 17.1013L83.2883 26.4571H83.7083V26.4656Z" fill="#FAD744"/>
<path d="M30.2783 9.01419C30.3483 8.75195 30.2584 8.4728 30.0384 8.26978L22.9884 36.3629C22.7584 37.2427 22.5384 37.9617 22.3284 38.5369C22.4784 38.6131 22.6384 38.6807 22.7984 38.7484C22.8584 38.5285 22.9184 38.3001 22.9884 38.0548L30.2783 9.01419Z" fill="#FAD744"/>
<path d="M183.208 21.0007C183.388 21.0007 183.678 21.0007 183.808 21.5336C183.848 21.1952 183.878 20.8569 183.878 20.51C183.878 19.3088 183.448 19.3088 183.208 19.3088C182.008 19.3342 180.668 20.4508 179.348 22.5233C178.078 24.5197 177.108 26.7275 176.448 29.113C176.648 29.0707 176.838 29.0284 177.038 28.9692C177.648 27.2774 178.418 25.6871 179.358 24.2067C180.668 22.1427 182.008 21.0261 183.208 21.0007Z" fill="#FAD744"/>
<path d="M186.088 29.7645C183.078 31.9808 179.538 33.2751 175.568 33.6304C175.508 34.3071 175.478 34.7978 175.478 35.1192C175.478 35.4491 175.498 35.7367 175.518 35.999C175.528 35.796 175.548 35.576 175.568 35.3222C179.538 34.9669 183.068 33.6727 186.088 31.4564C189.378 29.0455 191.038 26.0594 191.038 22.5911C191.038 22.3035 191.018 22.0244 190.988 21.7537C190.728 24.8497 189.098 27.5482 186.088 29.7645Z" fill="#FAD744"/>
<path d="M194.928 39.9662C195.028 40.0847 195.418 40.2116 196.198 40.2116C196.418 40.2116 196.628 40.1862 196.828 40.1523C197.098 39.6617 197.248 39.078 197.248 38.3929C197.248 38.1053 197.218 37.8261 197.168 37.5554C197.018 38.2998 196.668 38.8919 196.118 39.3318C195.758 39.6194 195.358 39.8309 194.928 39.9662Z" fill="#FAD744"/>
<path d="M221.218 36.769C221.218 37.082 221.258 37.3274 221.328 37.5304C221.388 37.2005 221.478 36.7944 221.618 36.2615L226.358 17.8457C226.418 17.592 226.348 17.3382 226.158 17.1352C226.148 17.1182 226.128 17.1182 226.108 17.1013L221.608 34.5696C221.288 35.847 221.218 36.473 221.218 36.769Z" fill="#FAD744"/>
<path d="M247.588 20.2562C247.508 20.0955 247.338 19.7571 246.338 19.7571C244.698 19.7571 242.948 21.5589 241.278 24.9765C239.458 28.6816 238.538 32.0061 238.538 34.84C238.538 35.2291 238.548 35.5505 238.568 35.8382C238.698 33.1566 239.608 30.0774 241.278 26.6599C242.948 23.2508 244.698 21.4405 246.338 21.4405C247.338 21.4405 247.508 21.7788 247.588 21.9396C247.748 22.261 247.928 22.8616 247.988 23.9444C247.998 23.6653 248.018 23.3861 248.018 23.1239C248.018 21.4743 247.788 20.6453 247.588 20.2562Z" fill="#FAD744"/>
<path d="M10.5283 35.2375C9.55835 35.2375 8.67833 35.5929 7.84833 36.3204C7.00833 37.0564 6.59833 37.9024 6.59833 38.9006C6.59833 39.1375 6.66833 39.3152 6.81833 39.459C7.01833 38.9345 7.34833 38.4523 7.84833 38.0124C8.68833 37.2848 9.55835 36.9295 10.5283 36.9295C10.6783 36.9295 10.8483 36.9549 11.0283 36.9972C11.1084 36.7519 11.1784 36.4896 11.2484 36.1935L11.4283 35.4152C11.0883 35.2968 10.7883 35.2375 10.5283 35.2375Z" fill="#FAD744"/>
<path d="M52.4583 39.3069C52.5683 38.4694 52.8183 37.5811 53.2183 36.6505C53.3483 36.3375 53.2583 35.9907 52.9883 35.7623C52.9683 35.7453 52.9483 35.7369 52.9283 35.72C52.5783 36.7013 52.3983 37.6319 52.3983 38.4863C52.3983 38.8078 52.4183 39.0785 52.4583 39.3069Z" fill="#FAD744"/>
<path d="M163.748 25.2051C163.718 26.4317 163.628 27.6667 163.458 28.8933C163.248 30.4159 162.878 31.964 162.368 33.4781C161.848 35.0093 161.158 36.4981 160.318 37.9023C159.458 39.3319 158.368 40.6261 157.088 41.7428C155.778 42.8763 154.218 43.7899 152.448 44.4581C150.658 45.1264 148.418 45.4732 145.798 45.4732C143.888 45.4732 142.348 45.1095 141.188 44.382L138.128 56.5801C138.048 56.9016 137.758 57.1469 137.378 57.223L127.278 59.2701C127.198 59.2871 127.118 59.2955 127.048 59.2955C126.788 59.2955 126.538 59.2109 126.348 59.0587C126.328 59.0417 126.318 59.0248 126.308 59.0164L126.068 59.9723C125.998 60.2599 126.098 60.5475 126.348 60.7505C126.538 60.9028 126.788 60.9874 127.048 60.9874C127.128 60.9874 127.208 60.9789 127.278 60.962L137.378 58.9149C137.758 58.8387 138.048 58.5849 138.128 58.272L141.188 46.0738C142.338 46.7929 143.888 47.1651 145.798 47.1651C148.418 47.1651 150.658 46.8267 152.448 46.15C154.218 45.4817 155.788 44.5681 157.088 43.4346C158.378 42.318 159.458 41.0237 160.318 39.5941C161.158 38.1899 161.848 36.7011 162.368 35.17C162.878 33.6558 163.248 32.1078 163.458 30.5851C163.668 29.0794 163.778 27.5483 163.778 26.0341C163.778 25.7465 163.758 25.4758 163.748 25.2051Z" fill="#FAD744"/>
<path d="M130.458 40.7617C126.488 43.8831 121.988 45.4735 117.008 45.4735C113.588 45.4735 110.808 44.7037 108.738 43.181C107.758 42.462 107.008 41.5145 106.478 40.3726C105.748 41.0155 104.978 41.633 104.148 42.2167C101.038 44.3822 97.7383 45.4819 94.3583 45.4819C90.9183 45.4819 88.1983 44.5683 86.2783 42.7581C84.5083 41.0916 83.5583 38.8837 83.4483 36.2021C83.4383 36.5744 83.4283 36.955 83.4283 37.3441C83.4283 40.271 84.3883 42.665 86.2883 44.4499C88.2083 46.2602 90.9284 47.1738 94.3684 47.1738C97.7484 47.1738 101.048 46.0741 104.158 43.9085C104.988 43.3333 105.758 42.7158 106.488 42.0644C107.018 43.2064 107.768 44.1454 108.748 44.8729C110.818 46.3955 113.608 47.1653 117.018 47.1653C121.788 47.1653 126.108 45.6934 129.948 42.8342L130.458 40.7617Z" fill="#FAD744"/>
<path d="M70.5684 33.2243L70.9884 31.5325H69.2784C67.7084 37.6147 64.5884 41.8527 60.0184 44.1367C58.2384 45.0249 56.3284 45.4733 54.3484 45.4733C50.9783 45.4733 48.5383 44.805 47.0783 43.4938C45.8383 42.3772 45.1283 41.0068 44.9583 39.4165C44.9283 39.7041 44.9083 40.0086 44.9083 40.3216C44.9083 42.2503 45.6383 43.8829 47.0783 45.1857C48.5283 46.5053 50.9783 47.1651 54.3484 47.1651C56.3284 47.1651 58.2384 46.7168 60.0184 45.8286C64.5984 43.5446 67.7084 39.3065 69.2784 33.2243H70.5684Z" fill="#FAD744"/>
<path d="M83.7483 31.5325H81.9283L78.7583 44.4667C78.6583 44.8559 78.2583 45.1435 77.7783 45.1435H68.8184C68.5384 45.1435 68.2684 45.0335 68.0784 44.8559L67.8384 45.8118C67.7784 46.0655 67.8484 46.3193 68.0384 46.5223C68.2284 46.7169 68.5184 46.8353 68.8184 46.8353H77.7783C78.2483 46.8353 78.6583 46.5562 78.7583 46.1586L81.9283 33.2243H83.5283C83.5783 32.6322 83.6483 32.0654 83.7483 31.5325Z" fill="#FAD744"/>
<path d="M250.788 39.3491C249.268 41.2186 247.438 42.6905 245.338 43.7479C243.208 44.8137 241.048 45.3636 238.908 45.3636C234.908 45.3636 231.818 44.5769 229.748 43.0204C229.098 42.5382 228.558 41.9714 228.108 41.337C225.578 44.0778 222.488 45.4736 218.868 45.4736C216.058 45.4736 213.838 44.8053 212.288 43.4941C210.958 42.369 210.188 41.0578 209.998 39.5944C209.968 39.9412 209.948 40.2711 209.948 40.5503C209.948 42.3183 210.738 43.8748 212.288 45.1859C213.838 46.4971 216.048 47.1654 218.868 47.1654C222.488 47.1654 225.578 45.7781 228.108 43.0288C228.558 43.6548 229.098 44.2216 229.748 44.7122C231.828 46.2687 234.908 47.0554 238.908 47.0554C241.038 47.0554 243.208 46.514 245.338 45.4397C247.438 44.3823 249.268 42.9104 250.788 41.0409C253.918 37.1581 255.508 32.1079 255.508 26.0427C255.508 25.7804 255.488 25.5436 255.478 25.2898C255.318 30.9321 253.758 35.6608 250.788 39.3491Z" fill="#FAD744"/>
<path d="M213.628 22.4898L214.108 20.6626C212.848 20.8995 211.858 21.517 211.118 22.5321C210.018 24.0294 209.068 26.3387 208.288 29.401C207.478 32.5816 206.808 35.0686 206.288 36.8028C205.748 38.6046 205.068 40.1441 204.268 41.3876C202.548 44.103 199.748 45.4734 195.968 45.4734C193.228 45.4734 191.118 44.7375 189.688 43.291C189.028 42.6142 188.528 41.8529 188.178 41.0154C184.288 43.9762 179.888 45.4819 175.038 45.4819C171.618 45.4819 168.838 44.7121 166.768 43.1895C164.828 41.7598 163.778 39.5012 163.608 36.4728C163.598 36.7605 163.578 37.0481 163.578 37.3441C163.578 40.7955 164.648 43.3333 166.768 44.8813C168.838 46.4039 171.628 47.1737 175.038 47.1737C179.888 47.1737 184.278 45.6765 188.178 42.7073C188.528 43.5532 189.028 44.3145 189.688 44.9828C191.108 46.4293 193.228 47.1653 195.968 47.1653C199.748 47.1653 202.538 45.7864 204.268 43.0795C205.068 41.8444 205.748 40.2964 206.288 38.4946C206.808 36.7605 207.478 34.2734 208.288 31.0928C209.068 28.0306 210.018 25.7212 211.118 24.2239C211.758 23.3442 212.598 22.7859 213.628 22.4898Z" fill="#FAD744"/>
<path d="M125.178 21.0007C125.358 21.0007 125.648 21.0007 125.778 21.5336C125.818 21.1952 125.848 20.8569 125.848 20.51C125.848 19.3088 125.418 19.3088 125.178 19.3088C123.978 19.3342 122.638 20.4508 121.318 22.5233C120.048 24.5197 119.078 26.7275 118.418 29.113C118.618 29.0707 118.808 29.0284 119.008 28.9692C119.618 27.2774 120.388 25.6871 121.328 24.2152C122.638 22.1427 123.988 21.0261 125.178 21.0007Z" fill="#FAD744"/>
<path d="M148.778 16.0106L148.848 15.7397C148.908 15.4857 148.838 15.2317 148.648 15.0286C148.638 15.0201 148.618 15.0116 148.608 15.0032L148.308 16.2053C148.458 16.1291 148.618 16.0783 148.778 16.0106Z" fill="#FAD744"/>
<path d="M128.058 29.7645C125.048 31.9808 121.508 33.2751 117.538 33.6304C117.478 34.2987 117.448 34.7978 117.448 35.1192C117.448 35.4491 117.468 35.7367 117.488 35.999C117.498 35.796 117.518 35.576 117.538 35.3222C121.508 34.9669 125.038 33.6727 128.058 31.4564C131.348 29.0455 133.008 26.0594 133.008 22.5911C133.008 22.3035 132.988 22.0244 132.958 21.7537C132.708 24.8497 131.068 27.5482 128.058 29.7645Z" fill="#FAD744"/>
<path d="M47.5484 26.0255C47.5684 26.0509 47.5684 26.0847 47.5884 26.1101C47.7784 26.3215 48.0684 26.4484 48.3884 26.4484H51.8584C52.2684 26.4484 52.6384 26.237 52.7884 25.907C53.3784 24.6382 54.0184 23.6654 54.6984 23.0055C55.2684 22.4557 56.0284 22.185 57.0184 22.185C57.7384 22.185 59.8284 22.185 60.0784 26.4231C60.0884 26.1439 60.1084 25.8647 60.1084 25.5941C60.1084 20.4932 57.7884 20.4932 57.0184 20.4932C56.0284 20.4932 55.2684 20.7639 54.6984 21.3137C54.0184 21.9735 53.3684 22.9463 52.7884 24.2152C52.6384 24.5367 52.2684 24.7566 51.8584 24.7566H48.3884C48.0784 24.7566 47.7784 24.6297 47.5884 24.4182C47.5684 24.3929 47.5684 24.359 47.5484 24.3336C47.2984 25.5941 47.0084 26.846 46.6084 28.0811C44.4484 34.9499 40.9984 40.0762 36.3384 43.3076C33.8984 45.0164 31.3084 45.8792 28.6384 45.8792C25.3584 45.8792 22.3584 44.8387 19.7184 42.7747C17.3683 45.3547 14.0384 46.6574 9.80836 46.6574C7.47835 46.6574 5.40835 46.0061 3.64835 44.7203C2.07835 43.5783 1.18835 42.0641 0.978348 40.22C0.948348 40.4907 0.928345 40.7698 0.928345 41.0575C0.928345 43.2991 1.83835 45.1009 3.64835 46.4121C5.40835 47.6979 7.47835 48.3493 9.80836 48.3493C14.0484 48.3493 17.3783 47.0466 19.7184 44.4665C22.3584 46.5305 25.3484 47.571 28.6384 47.571C31.3084 47.571 33.8984 46.7082 36.3384 44.9994C40.9984 41.768 44.4484 36.6418 46.6084 29.7729C47.0084 28.5379 47.2984 27.2859 47.5484 26.0255Z" fill="#FAD744"/>
<path d="M150.258 20.603C149.698 20.603 149.068 20.7891 148.398 21.1613C147.728 21.5251 147.128 22.1003 146.588 22.8616L142.738 38.2997C142.808 38.3927 142.918 38.4943 143.088 38.5873L146.588 24.5535C147.118 23.7922 147.728 23.2254 148.398 22.8532C149.068 22.481 149.698 22.2949 150.258 22.2949C150.858 22.2949 152.378 22.3033 152.598 25.3825C152.618 25.061 152.628 24.7565 152.628 24.4604C152.628 20.603 150.898 20.603 150.258 20.603Z" fill="#FAD744"/>
<path d="M5.71835 23.2087C7.14835 24.1053 9.11836 24.5621 11.5784 24.5621C12.1284 24.5621 12.5784 24.1814 12.5784 23.7162C12.5784 23.4709 12.4984 23.2256 12.3184 22.9126C12.2684 22.8449 12.2384 22.7519 12.1984 22.6757C12.0284 22.7942 11.8184 22.8703 11.5784 22.8703C9.12836 22.8703 7.14835 22.4135 5.71835 21.5169C4.38834 20.6879 3.63833 19.3683 3.45833 17.6003C3.43833 17.8372 3.41833 18.0825 3.41833 18.3278V18.4632C3.41833 20.654 4.19834 22.2528 5.71835 23.2087Z" fill="#FAD744"/>
<path d="M50.5583 57.0287C50.5083 56.961 50.3983 56.8257 49.9783 56.8257C49.6183 56.8257 48.6283 57.0879 47.1183 59.4988C45.0183 62.8656 43.1883 67.9666 41.6883 74.6748C41.1183 77.221 40.8283 79.2005 40.8283 80.5624C40.8283 80.8501 40.8483 81.0954 40.8683 81.3407C40.9583 80.0549 41.2383 78.3884 41.6883 76.3666C43.1983 69.6669 45.0283 64.5575 47.1183 61.1907C48.6283 58.7798 49.6283 58.5175 49.9783 58.5175C50.3983 58.5175 50.5083 58.6529 50.5583 58.7206C50.6183 58.7967 50.7283 59.0082 50.7983 59.4819C50.8183 59.1858 50.8483 58.8897 50.8483 58.6021C50.8483 57.5193 50.6483 57.1387 50.5583 57.0287Z" fill="#FAD744"/>
<path d="M48.1783 76.2819C47.7083 76.3581 47.1983 76.3919 46.6583 76.3919C45.5483 76.3919 44.6183 76.1043 43.8883 75.5375C43.3483 75.123 42.9983 74.6069 42.8383 74.0232C42.7683 74.3277 42.7383 74.6577 42.7383 75.0045C42.7383 75.8759 43.1383 76.6457 43.8883 77.221C44.6283 77.7878 45.5583 78.0754 46.6583 78.0754C47.1983 78.0754 47.7083 78.0416 48.1783 77.9654C48.2283 78.1854 48.2783 78.4815 48.3083 78.8368C48.3283 78.6676 48.3583 78.4984 48.3583 78.3292C48.3483 77.3563 48.2683 76.7049 48.1783 76.2819Z" fill="#FAD744"/>
<path d="M52.1583 70.3523C52.4183 70.5045 52.6683 70.6653 52.9083 70.8429L53.3084 70.2C55.4684 66.5964 56.5684 63.4073 56.5684 60.7427C56.5684 60.3874 56.5584 60.0406 56.5384 59.7107C56.3784 62.24 55.2984 65.1922 53.3183 68.5082L52.1583 70.3523Z" fill="#FAD744"/>
<path d="M147.488 73.2705C147.428 73.5328 147.398 73.8119 147.398 74.108C147.398 75.4108 147.918 76.1637 148.518 76.5951C148.638 76.1129 148.758 75.6307 148.858 75.1147C148.268 74.8186 147.698 74.2603 147.488 73.2705Z" fill="#FAD744"/>
<path d="M20.7883 60.3872C21.6083 59.3213 22.4983 58.467 23.4183 57.8494C24.2583 57.2911 25.1283 57.0205 26.0883 57.0205C27.3683 57.0205 27.7483 57.4434 27.8783 57.5872C28.1083 57.841 28.2683 58.1371 28.3683 58.467C28.4383 58.1709 28.4883 57.8833 28.4883 57.5957C28.4883 56.9105 28.2883 56.3522 27.8883 55.8954C27.7583 55.7516 27.3783 55.3286 26.0983 55.3286C25.1383 55.3286 24.2583 55.5993 23.4283 56.1576C22.5083 56.7667 21.6183 57.621 20.7983 58.6954C19.0683 60.9117 17.6283 63.8047 16.5283 67.2899C15.4183 70.792 14.8583 73.998 14.8583 76.8319C14.8583 77.2125 14.8683 77.5763 14.8883 77.9316C14.9583 75.2415 15.4983 72.247 16.5283 68.9902C17.6183 65.4966 19.0583 62.6035 20.7883 60.3872Z" fill="#FAD744"/>
<path d="M82.4983 82.5253C82.4983 82.8552 82.5483 83.0836 82.6383 83.2613C82.7183 82.8891 82.8383 82.39 83.0183 81.6963C83.3883 80.3259 84.7083 75.1572 86.9483 66.3341C87.0083 66.0803 86.9383 65.8265 86.7483 65.6235C86.7383 65.6151 86.7184 65.6066 86.7084 65.5981C84.6183 73.8291 83.3783 78.6848 83.0183 80.0044C82.5683 81.7217 82.4983 82.3223 82.4983 82.5253Z" fill="#FAD744"/>
<path d="M126.628 80.1312C126.348 81.104 126.198 81.8907 126.198 82.4744C126.198 82.7789 126.238 83.0073 126.298 83.185C126.368 82.7789 126.478 82.3221 126.628 81.8146L127.988 77.0182C128.648 74.7849 128.978 72.7801 128.978 71.0544C128.978 70.7922 128.958 70.5468 128.938 70.3015C128.838 71.8073 128.528 73.4907 127.988 75.3348L126.628 80.1312Z" fill="#FAD744"/>
<path d="M222.958 60.7345L223.918 59.5755C223.888 59.5586 223.858 59.5417 223.828 59.5248C222.188 58.738 221.208 57.7736 220.918 56.657C220.848 56.97 220.818 57.2915 220.818 57.6298C220.808 58.8226 221.548 59.8632 222.958 60.7345Z" fill="#FAD744"/>
<path d="M236.488 80.816C236.648 80.3338 236.808 79.8263 236.968 79.2849C233.748 78.4051 231.958 76.4933 231.688 73.7102C231.658 74.0232 231.628 74.3362 231.628 74.6661C231.628 77.6945 233.318 79.7924 236.488 80.816Z" fill="#FAD744"/>
<path d="M246.878 67.9833C244.838 67.9833 243.388 68.4147 242.418 69.2945C241.428 70.1997 240.958 71.2909 240.958 72.6444C240.958 72.9913 240.988 73.3043 241.028 73.5834C241.178 72.5683 241.628 71.7054 242.418 70.9779C243.338 70.1405 244.708 69.7259 246.578 69.6837L247.018 67.9749H246.878V67.9833Z" fill="#FAD744"/>
<path d="M234.178 83.3284C234.038 83.9459 233.728 84.4619 233.258 84.834C233.008 85.0371 232.738 85.1893 232.458 85.3077C232.638 85.367 232.878 85.4008 233.198 85.4008C233.468 85.4008 233.788 85.3585 234.128 85.1978C234.228 84.8763 234.288 84.538 234.288 84.1573C234.278 83.8613 234.238 83.5906 234.178 83.3284Z" fill="#FAD744"/>
<path d="M76.1083 67.9833C74.0683 67.9833 72.6183 68.4147 71.6483 69.2945C70.6583 70.1997 70.1783 71.2909 70.1783 72.6444C70.1783 72.9913 70.2083 73.3043 70.2483 73.5834C70.3983 72.5683 70.8483 71.7054 71.6483 70.9779C72.5583 70.1405 73.9383 69.7259 75.8083 69.6837L76.2483 67.9749H76.1083V67.9833Z" fill="#FAD744"/>
<path d="M60.8983 73.4653C59.3283 74.1505 57.5283 74.675 55.5183 75.0387C55.5883 75.4955 55.6283 76.0539 55.6483 76.7052C57.6083 76.3415 59.3583 75.8255 60.8983 75.1572C61.0783 77.9234 62.7283 79.8521 65.7184 80.8164C65.8784 80.3342 66.0384 79.8267 66.1984 79.2853C62.8883 78.3802 61.0883 76.3753 60.8983 73.4653Z" fill="#FAD744"/>
<path d="M148.768 68.1103C148.618 67.8988 148.088 67.865 147.788 67.865C146.498 67.865 145.008 69.4469 143.608 72.323C142.038 75.5206 141.248 78.3883 141.248 80.8415C141.248 81.2137 141.258 81.5267 141.278 81.7974C141.418 79.5134 142.198 76.8995 143.618 74.0064C145.028 71.1303 146.508 69.5484 147.798 69.5484C148.058 69.5484 148.458 69.5822 148.678 69.7176C148.828 69.5991 148.988 69.4892 149.168 69.3961C149.048 68.6009 148.878 68.2541 148.768 68.1103Z" fill="#FAD744"/>
<path d="M30.1083 64.1433C28.6383 64.1433 27.4083 63.7288 26.4283 62.9167C26.3983 62.9336 26.3683 62.959 26.3383 62.9674C26.0783 63.0859 25.8883 63.3058 25.8283 63.5511C25.7683 63.7965 25.8483 64.0587 26.0383 64.2533C27.0683 65.3023 28.4283 65.8352 30.0983 65.8352C31.9983 65.8352 35.1883 65.1331 35.1883 60.455C35.1883 60.1842 35.1683 59.922 35.1383 59.6682C34.7583 63.5342 31.8783 64.1433 30.1083 64.1433Z" fill="#FAD744"/>
<path d="M63.4183 83.3284C63.2783 83.9459 62.9683 84.4619 62.4983 84.834C62.2483 85.0371 61.9783 85.1893 61.6884 85.3077C61.8683 85.367 62.1084 85.4008 62.4284 85.4008C62.6983 85.4008 63.0183 85.3585 63.3583 85.1978C63.4483 84.8763 63.5183 84.538 63.5183 84.1573C63.5183 83.8613 63.4783 83.5906 63.4183 83.3284Z" fill="#FAD744"/>
<path d="M221.138 75.6988C220.958 77.0269 220.628 78.3719 220.188 79.7C219.738 81.0366 219.138 82.3308 218.398 83.5574C217.648 84.8094 216.698 85.9429 215.568 86.9242C214.418 87.9224 213.048 88.7175 211.498 89.3012C209.928 89.8934 207.968 90.1894 205.668 90.1894C204.068 90.1894 202.758 89.9018 201.758 89.3266L199.138 99.7484C199.058 100.07 198.768 100.315 198.388 100.391L189.618 102.168C189.538 102.185 189.458 102.193 189.388 102.193C189.128 102.193 188.878 102.108 188.688 101.956C188.668 101.939 188.658 101.922 188.648 101.914L188.408 102.87C188.338 103.157 188.448 103.445 188.688 103.648C188.878 103.8 189.128 103.885 189.388 103.885C189.468 103.885 189.548 103.876 189.618 103.86L198.388 102.083C198.768 102.007 199.058 101.753 199.138 101.44L201.758 91.0184C202.758 91.5937 204.068 91.8813 205.668 91.8813C207.968 91.8813 209.928 91.5852 211.498 90.9931C213.058 90.4094 214.418 89.6058 215.568 88.616C216.688 87.6348 217.648 86.5097 218.398 85.2492C219.128 84.0227 219.728 82.7284 220.188 81.3918C220.638 80.0637 220.958 78.7187 221.138 77.3906C221.318 76.0794 221.418 74.7429 221.418 73.4232C221.418 73.1441 221.408 72.8649 221.388 72.5942C221.358 73.6347 221.278 74.6752 221.138 75.6988Z" fill="#FAD744"/>
<path d="M191.608 88.4553C189.588 89.6057 187.258 90.1894 184.598 90.1894C182.818 90.1894 181.208 89.648 179.808 88.5822C178.888 87.8631 178.268 86.8818 177.948 85.6383C177.188 86.2812 176.418 86.8565 175.648 87.3386C172.668 89.2335 169.328 90.1979 165.718 90.1979C158.208 90.1979 156.078 87.3386 155.748 84.6401C155.708 84.9193 155.688 85.2069 155.688 85.503C155.688 88.4214 157.428 91.8982 165.708 91.8982C169.318 91.8982 172.668 90.9338 175.638 89.039C176.408 88.5568 177.178 87.9815 177.938 87.3386C178.258 88.5737 178.878 89.5634 179.798 90.2825C181.198 91.3483 182.808 91.8897 184.588 91.8897C187.028 91.8897 189.198 91.3906 191.108 90.4094L191.608 88.4553Z" fill="#FAD744"/>
<path d="M228.758 61.8846C230.118 60.2266 230.778 58.7801 230.778 57.4689C230.778 57.139 230.748 56.826 230.698 56.5215C230.498 57.6381 229.858 58.8393 228.748 60.1928C227.448 61.7747 225.608 63.2212 223.278 64.4901C223.118 64.5831 222.928 64.6254 222.738 64.6254C222.578 64.6254 222.418 64.5916 222.278 64.5324C221.998 64.4055 221.778 64.2363 221.608 64.0586L221.388 64.3209C221.268 64.4647 221.208 64.6339 221.208 64.803C221.208 65.4121 221.588 65.9197 222.278 66.2242C222.428 66.2919 222.588 66.3172 222.738 66.3172C222.928 66.3172 223.118 66.275 223.278 66.1819C225.618 64.913 227.458 63.4665 228.758 61.8846Z" fill="#FAD744"/>
<path d="M158.638 74.9542L161.668 73.017C164.268 71.3928 165.648 71.046 166.348 71.046C167.178 71.046 167.638 71.2237 167.858 71.6551C167.958 71.3675 168.018 71.0798 168.018 70.7838C168.018 69.7264 167.578 69.3457 166.348 69.3457C165.648 69.3457 164.258 69.6841 161.668 71.3167L158.638 73.2539C157.688 73.8799 156.708 74.472 155.718 74.9965C155.188 79.4122 153.598 83.0243 150.978 85.7397C148.198 88.6243 144.808 90.0878 140.898 90.0878C136.738 90.0878 133.808 88.9288 132.128 86.6787C131.468 87.3977 130.768 88.0237 130.018 88.5228C128.328 89.631 126.518 90.1893 124.638 90.1893C118.328 90.1893 116.538 87.3385 116.248 84.6316C116.218 84.9361 116.198 85.2322 116.198 85.4859C116.198 88.4044 117.658 91.8811 124.638 91.8811C126.518 91.8811 128.328 91.3228 130.018 90.2147C130.758 89.724 131.458 89.098 132.128 88.3705C133.808 90.6292 136.738 91.7796 140.898 91.7796C144.808 91.7796 148.198 90.3162 150.978 87.4316C153.598 84.7161 155.188 81.104 155.718 76.6883C156.708 76.1723 157.698 75.5802 158.638 74.9542Z" fill="#FAD744"/>
<path d="M244.018 79.6743C243.628 79.7166 243.238 79.742 242.848 79.7589C241.808 83.3287 240.898 85.6211 240.068 86.7546C239.168 87.9812 238.178 88.8694 237.108 89.3938C236.028 89.9268 234.768 90.189 233.368 90.189C230.848 90.189 228.898 89.5546 227.588 88.3111C226.508 87.2875 225.878 86.0102 225.698 84.5045C225.668 84.7582 225.638 85.0205 225.638 85.2996C225.638 87.2029 226.288 88.7848 227.578 90.0029C228.898 91.2464 230.838 91.8808 233.358 91.8808C234.758 91.8808 236.018 91.6101 237.098 91.0857C238.168 90.5612 239.158 89.673 240.058 88.4464C240.888 87.3129 241.798 85.0205 242.838 81.4507C243.108 81.4423 243.368 81.4169 243.628 81.4C243.738 80.8586 243.858 80.3003 244.018 79.6743Z" fill="#FAD744"/>
<path d="M257.488 65.6064C255.358 73.9897 254.148 78.7185 253.798 80.0128C253.338 81.7216 253.268 82.3222 253.268 82.5252C253.268 82.8551 253.318 83.0835 253.408 83.2612C253.488 82.8889 253.608 82.3898 253.788 81.7046C254.148 80.3511 255.438 75.3263 257.718 66.3424C257.778 66.0886 257.708 65.8348 257.518 65.6318C257.518 65.6234 257.498 65.6149 257.488 65.6064Z" fill="#FAD744"/>
<path d="M117.718 71.2827C118.028 71.2827 118.548 71.2996 118.738 72.1878C118.788 71.8241 118.818 71.5195 118.818 71.2657C118.818 69.5908 118.098 69.5908 117.718 69.5908C116.738 69.5908 115.778 70.3775 114.868 71.9256C114.568 72.4162 114.328 72.9407 114.138 73.5075L110.208 89.2247C110.108 89.6139 109.698 89.893 109.228 89.893H100.858C100.578 89.893 100.308 89.7831 100.118 89.6054L99.8783 90.5613C99.8183 90.8066 99.8883 91.0689 100.078 91.2719C100.268 91.4664 100.558 91.5849 100.858 91.5849H109.228C109.698 91.5849 110.108 91.3057 110.208 90.9166L114.138 75.1993C114.328 74.6325 114.568 74.0996 114.868 73.6174C115.768 72.0694 116.728 71.2827 117.718 71.2827Z" fill="#FAD744"/>
<path d="M251.238 90.1804C251.198 90.1889 251.148 90.1889 251.108 90.1889C248.608 90.1889 246.658 89.5968 245.298 88.4379C244.158 87.4567 243.498 86.3316 243.318 85.0881C243.288 85.4519 243.268 85.7818 243.268 86.0863C243.268 87.6089 243.948 88.9624 245.298 90.1212C246.648 91.2886 248.608 91.8722 251.108 91.8722C251.148 91.8722 251.198 91.8723 251.238 91.8638C253.808 91.5762 256.988 90.2989 257.578 85.9087C257.608 85.6803 257.528 85.4603 257.358 85.2827C256.428 88.827 253.578 89.9182 251.238 90.1804Z" fill="#FAD744"/>
<path d="M208.448 64.3037C208.438 64.126 208.388 63.9484 208.248 63.813C208.238 63.8045 208.218 63.7961 208.208 63.7876L208.038 64.4645C208.168 64.3968 208.318 64.3545 208.448 64.3037Z" fill="#FAD744"/>
<path d="M167.188 81.163C166.748 81.5859 166.528 82.0597 166.528 82.618C166.528 82.8464 166.528 83.1678 166.718 83.4724C166.828 83.2524 166.978 83.0494 167.178 82.8548C167.718 82.3388 168.418 81.8397 169.258 81.366C170.148 80.8669 171.128 80.3424 172.188 79.8011C173.308 79.2258 174.358 78.566 175.318 77.8301C176.308 77.0603 177.138 76.1467 177.778 75.1146C178.448 74.0403 178.788 72.8391 178.788 71.5364C178.788 71.2065 178.768 70.8935 178.738 70.5974C178.628 71.6125 178.318 72.56 177.778 73.4228C177.128 74.4548 176.298 75.3684 175.318 76.1382C174.368 76.8742 173.318 77.5424 172.188 78.1092C171.138 78.6421 170.148 79.1751 169.258 79.6742C168.428 80.1479 167.728 80.647 167.188 81.163Z" fill="#FAD744"/>
<path d="M188.068 82.9311C188.068 83.0918 188.078 83.2779 188.198 83.4217C188.218 83.2949 188.238 83.168 188.268 83.0411L192.438 66.3341C192.498 66.0888 192.428 65.8265 192.238 65.6235C192.228 65.6151 192.208 65.6066 192.198 65.5981L188.268 81.3492C188.138 81.8906 188.068 82.4236 188.068 82.9311Z" fill="#FAD744"/>
<path d="M209.548 68.6096C209.088 68.6096 208.568 68.7619 208.008 69.0749C207.448 69.3794 206.938 69.8616 206.488 70.496L203.158 83.8276C203.228 83.9037 203.348 83.9883 203.518 84.0644L206.478 72.1878C206.928 71.5534 207.438 71.0712 207.998 70.7667C208.558 70.4622 209.078 70.3014 209.538 70.3014C210.018 70.3014 211.228 70.3099 211.428 72.7884C211.448 72.4585 211.458 72.1455 211.458 71.841C211.468 68.6096 210.068 68.6096 209.548 68.6096Z" fill="#FAD744"/>
<path d="M73.2483 79.6743C72.8583 79.7166 72.4683 79.742 72.0683 79.7589C71.0283 83.3287 70.1183 85.6211 69.2883 86.7546C68.3883 87.9812 67.3983 88.8694 66.3283 89.3938C65.2483 89.9268 63.9883 90.189 62.5883 90.189C60.0683 90.189 58.1283 89.5546 56.8083 88.3111C55.7283 87.2875 55.0983 86.0102 54.9183 84.5045C54.8883 84.7582 54.8583 85.0205 54.8583 85.2996C54.8583 87.2029 55.5083 88.7848 56.7983 90.0029C58.1183 91.2464 60.0583 91.8808 62.5783 91.8808C63.9783 91.8808 65.2383 91.6101 66.3183 91.0857C67.3883 90.5612 68.3783 89.673 69.2783 88.4464C70.1083 87.3129 71.0183 85.0205 72.0583 81.4507C72.3183 81.4423 72.5883 81.4169 72.8483 81.4C72.9783 80.8586 73.0983 80.3003 73.2483 79.6743Z" fill="#FAD744"/>
<path d="M185.868 63.627H191.468C191.568 63.627 191.648 63.6609 191.738 63.6778C192.118 63.4832 192.488 63.2718 192.828 62.9926C193.948 62.0875 194.508 60.954 194.508 59.6344C194.508 59.3383 194.468 59.0592 194.418 58.78C194.228 59.7444 193.698 60.5903 192.828 61.3008C191.718 62.1975 190.378 62.6543 188.848 62.6543C187.298 62.6543 185.968 62.189 184.888 61.2754C184.048 60.5649 183.538 59.7274 183.348 58.78C183.288 59.0592 183.258 59.3383 183.258 59.6344C183.258 60.9371 183.808 62.0537 184.888 62.9672C185.188 63.2295 185.528 63.4409 185.868 63.627Z" fill="#FAD744"/>
<path d="M103.568 71.2407C103.738 71.2407 104.018 71.2492 104.178 71.7229C104.248 71.4438 104.288 71.1562 104.288 70.8685C104.288 69.5574 103.808 69.5574 103.568 69.5574C102.738 69.5574 102.058 69.8788 101.448 70.5725C100.718 71.393 100.158 72.3827 99.7783 73.5247L95.8483 89.2418C95.7483 89.631 95.3383 89.9101 94.8683 89.9101H86.4983C86.1983 89.9101 85.9083 89.7917 85.7183 89.5971C85.5383 89.4026 85.4583 89.1488 85.5183 88.9119C83.9583 89.7663 82.2383 90.1977 80.3383 90.1977C77.8383 90.1977 75.8883 89.6056 74.5283 88.4467C73.3883 87.4654 72.7283 86.3404 72.5483 85.0969C72.5183 85.4606 72.4983 85.7905 72.4983 86.095C72.4983 87.6177 73.1783 88.9712 74.5283 90.1301C75.8783 91.2974 77.8383 91.8811 80.3383 91.8811C82.2383 91.8811 83.9583 91.4497 85.5183 90.5953C85.4683 90.8406 85.5383 91.0944 85.7183 91.2805C85.9083 91.4751 86.1983 91.5935 86.4983 91.5935H94.8683C95.3383 91.5935 95.7483 91.3143 95.8483 90.9252L99.7783 75.2081C100.158 74.0661 100.718 73.0764 101.448 72.2558C102.058 71.5622 102.738 71.2407 103.568 71.2407Z" fill="#FAD744"/>
<path d="M55.2783 81.5692C55.5183 80.6471 55.6583 79.7505 55.6583 78.8961C55.6583 78.4731 55.6483 78.0924 55.6283 77.7456C55.5583 79.0145 55.2383 80.3511 54.6683 81.7384C54.0083 83.3287 53.0283 84.7584 51.7583 85.985C48.9683 88.7089 45.2783 90.0877 40.8183 90.0877C37.3283 90.0877 34.6483 89.1826 32.8383 87.3892C32.2183 86.7717 31.7083 86.0865 31.3083 85.3336C29.2683 87.2877 26.5783 88.7681 23.2483 89.7493C21.1083 90.3838 18.9783 90.7052 16.8983 90.7052H16.7283C12.1583 90.6714 8.72833 89.6225 6.51833 87.6007C4.45833 85.7058 3.35833 82.7366 3.23833 78.7946C3.22833 79.116 3.21832 79.4459 3.21832 79.7674C3.21832 84.0816 4.32833 87.2877 6.51833 89.2925C8.72833 91.3228 12.1583 92.3633 16.7283 92.3971H16.8983C18.9683 92.3971 21.1083 92.0757 23.2483 91.4412C26.5783 90.4599 29.2683 88.9711 31.3083 87.0255C31.7083 87.7783 32.2183 88.472 32.8383 89.0811C34.6483 90.8744 37.3283 91.7796 40.8183 91.7796C45.2783 91.7796 48.9683 90.4007 51.7583 87.6768C53.0283 86.4502 54.0083 85.0206 54.6683 83.4303C54.7883 83.1511 54.8783 82.8719 54.9783 82.6012C55.0383 82.2206 55.1483 81.8822 55.2783 81.5692Z" fill="#FAD744"/>
<path d="M19.5884 40.4572C17.4084 43.3503 14.1483 44.7968 9.81835 44.7968C7.72835 44.7968 5.88835 44.2216 4.30835 43.0711C2.72835 41.9207 1.93835 40.3473 1.93835 38.3593C1.93835 36.3714 2.79835 34.6965 4.50835 33.3515C6.21835 32.0064 8.25835 31.3297 10.6384 31.3297C11.5984 31.3297 12.4284 31.4735 13.1184 31.7696L19.3984 7.23778L29.3084 6.12962L22.0184 35.1702C21.7084 36.3291 21.4284 37.2173 21.1684 37.8264C22.2184 38.6216 23.6383 39.0192 25.4383 39.0192C27.2383 39.0192 28.9184 38.2663 30.4884 36.7521C33.4984 33.8759 35.6884 29.2403 37.0584 22.8451C37.6684 19.9351 37.9784 17.2704 37.9784 14.8511C37.9784 10.6807 37.0784 7.67766 35.2684 5.83354C33.6084 4.20937 31.3884 3.39728 28.5984 3.39728C23.1884 3.39728 18.8484 4.64079 15.5683 7.12781C12.2883 9.61483 10.6483 12.9647 10.6483 17.1689C10.6483 18.6662 10.9184 19.8167 11.4684 20.6288C11.5584 20.7726 11.5983 20.9079 11.5983 21.0179C9.35835 21.0179 7.59835 20.6203 6.33835 19.8251C5.07835 19.03 4.43836 17.6765 4.43836 15.7562V15.6209C4.43836 13.117 5.57835 10.7145 7.86835 8.43053C11.3984 4.86919 16.3683 2.50906 22.7783 1.35014C24.8883 0.977937 27.3184 0.800293 30.0684 0.800293C32.8184 0.800293 35.3184 1.24017 37.5884 2.12839C43.9984 4.63233 47.1984 9.63174 47.1984 17.1182C47.1984 20.4004 46.6884 23.6487 45.6584 26.8548C43.5484 33.5883 40.2284 38.5201 35.7183 41.65C33.4483 43.2319 31.0984 44.027 28.6583 44.027C25.2683 44.027 22.2484 42.8343 19.5884 40.4572ZM12.5584 33.9352C11.7984 33.5629 11.1184 33.3853 10.5284 33.3853C9.28835 33.3853 8.14836 33.8336 7.12836 34.7303C6.10836 35.627 5.58835 36.6759 5.58835 37.8941C5.58835 38.4693 5.84835 38.9261 6.36835 39.2645C6.88835 39.6028 7.50835 39.772 8.22835 39.772C8.94835 39.772 9.69836 39.459 10.4684 38.8331C11.2384 38.2071 11.8284 37.0481 12.2184 35.3478L12.5584 33.9352Z" fill="#2C3C68"/>
<path d="M101.348 19.7744C101.348 18.2264 100.838 17.4482 99.8084 17.4482C98.1084 17.4482 96.4484 19.2838 94.8384 22.9551C93.3384 26.6094 92.5784 30.12 92.5784 33.4952C92.5784 35.5592 93.0384 37.0649 93.9484 38.0208C94.8684 38.9682 96.0884 39.442 97.6084 39.442C99.1384 39.442 100.858 38.9344 102.778 37.9193C104.698 36.9042 106.428 35.3139 107.978 33.1314H110.238C108.688 36.0245 106.448 38.4945 103.508 40.5416C100.568 42.5888 97.5184 43.6123 94.3584 43.6123C91.1984 43.6123 88.7484 42.8002 87.0184 41.1676C85.2884 39.535 84.4184 37.3525 84.4184 34.6287C84.4184 32.7508 84.5884 31.1012 84.9384 29.6801H81.1084L77.7784 43.2824H68.8184L72.2184 29.6801H68.4584C66.9984 35.9145 64.0084 40.1525 59.4984 42.4027C57.8684 43.2147 56.1384 43.6208 54.3284 43.6208C51.2384 43.6208 49.0584 43.0456 47.7884 41.9036C46.5284 40.7616 45.8884 39.332 45.8884 37.6148C45.8884 35.2885 46.7084 33.8082 48.3384 33.1653C48.8184 32.9622 49.4384 32.8607 50.1884 32.8607C50.9384 32.8607 51.6284 33.1314 52.2684 33.6644C51.6784 35.0263 51.3884 36.3036 51.3884 37.4794C51.3884 38.6637 51.6584 39.4843 52.1884 39.941C52.7184 40.3978 53.3584 40.6347 54.0884 40.6347C54.8184 40.6347 55.5084 40.2456 56.1684 39.4758C58.1984 37.0819 59.6384 33.9012 60.4784 29.9339C60.8884 28.0729 61.0984 26.2964 61.0984 24.5961C61.0984 20.6288 59.7384 18.6494 57.0084 18.6494C55.7184 18.6494 54.6984 19.0216 53.9384 19.7575C53.1784 20.4935 52.4784 21.5424 51.8484 22.9128H48.3784C50.2784 17.2874 53.9784 14.479 59.4984 14.479C62.5684 14.479 64.9684 15.2911 66.6884 16.9152C68.4084 18.5394 69.2684 20.7219 69.2684 23.4711C69.2684 24.41 69.1984 25.3575 69.0684 26.3218H73.0884L75.8984 14.9866H84.8584L82.0484 26.3218H85.8084C87.6784 20.8995 90.6184 17.2874 94.5984 15.4856C96.0584 14.8258 97.5884 14.4875 99.1784 14.4875C101.898 14.4875 103.788 14.9866 104.848 15.9847C105.908 16.9829 106.438 18.201 106.438 19.6391C106.438 21.0771 106.098 22.1345 105.428 22.8028C104.748 23.4795 103.968 23.8094 103.088 23.8094C102.208 23.8094 101.398 23.5895 100.648 23.1496C101.118 21.8808 101.348 20.7726 101.348 19.7744Z" fill="#2C3C68"/>
<path d="M135.418 33.1315C130.408 40.1189 124.268 43.6125 117.008 43.6125C113.828 43.6125 111.288 42.9189 109.388 41.5231C107.488 40.1273 106.548 37.8349 106.548 34.6203C106.548 30.3061 107.848 26.1272 110.438 22.0922C112.418 19.013 115.128 16.8221 118.548 15.5109C120.318 14.8087 122.148 14.4619 124.038 14.4619C127.128 14.4619 129.238 14.9526 130.348 15.9423C131.458 16.932 132.018 18.2432 132.018 19.8843C132.018 23.1073 130.478 25.8565 127.408 28.1152C124.338 30.3738 120.738 31.6173 116.618 31.8372C116.508 32.9031 116.458 33.6644 116.458 34.1043C116.458 36.0415 116.858 37.3189 117.668 37.9364C118.478 38.5539 119.608 38.8669 121.068 38.8669C123.638 38.8669 125.798 38.3847 127.558 37.4119C129.308 36.4475 131.168 35.0179 133.128 33.14H135.418V33.1315ZM126.848 19.4952C126.848 18.1332 126.288 17.448 125.178 17.448C123.548 17.4819 121.968 18.7085 120.438 21.1109C118.908 23.5133 117.808 26.1865 117.138 29.1134C119.708 28.9696 121.968 27.9544 123.918 26.068C125.878 24.1985 126.848 22.0076 126.848 19.4952Z" fill="#2C3C68"/>
<path d="M140.608 41.5907L137.148 55.3877L127.048 57.4349L138.228 12.8547H147.868L146.788 17.1097C149.008 15.4856 151.618 14.6735 154.598 14.6735C158.458 14.6735 160.978 16.2384 162.148 19.3768C162.558 20.5188 162.768 21.83 162.768 23.3188C162.768 24.7992 162.668 26.288 162.458 27.7684C162.248 29.2487 161.898 30.7375 161.398 32.2179C160.898 33.6983 160.238 35.1279 159.418 36.4898C158.598 37.8518 157.578 39.0699 156.358 40.1273C155.138 41.1847 153.688 42.0306 152.028 42.6566C150.368 43.2826 148.278 43.5956 145.788 43.5956C143.298 43.6125 141.568 42.9358 140.608 41.5907ZM153.628 23.4542C153.628 20.3242 152.508 18.7508 150.258 18.7508C149.498 18.7508 148.698 18.9792 147.858 19.4445C147.018 19.9013 146.278 20.6034 145.648 21.5424L141.688 37.3865C142.078 38.2493 143.038 38.6892 144.548 38.6892C146.058 38.6892 147.418 38.1563 148.618 37.082C150.948 34.9841 152.448 31.9726 153.128 28.0644C153.458 26.3387 153.628 24.7992 153.628 23.4542Z" fill="#2C3C68"/>
<path d="M193.438 33.1315C188.428 40.1189 182.288 43.6125 175.028 43.6125C171.848 43.6125 169.308 42.9189 167.408 41.5231C165.508 40.1273 164.568 37.8349 164.568 34.6203C164.568 30.3061 165.868 26.1272 168.458 22.0922C170.438 19.013 173.148 16.8221 176.568 15.5109C178.338 14.8087 180.168 14.4619 182.058 14.4619C185.148 14.4619 187.258 14.9526 188.368 15.9423C189.478 16.932 190.038 18.2432 190.038 19.8843C190.038 23.1073 188.498 25.8565 185.428 28.1152C182.358 30.3738 178.758 31.6173 174.638 31.8372C174.528 32.9031 174.478 33.6644 174.478 34.1043C174.478 36.0415 174.878 37.3189 175.688 37.9364C176.498 38.5539 177.628 38.8669 179.088 38.8669C181.658 38.8669 183.818 38.3847 185.578 37.4119C187.328 36.4475 189.188 35.0179 191.148 33.14H193.438V33.1315ZM184.878 19.4952C184.878 18.1332 184.318 17.448 183.208 17.448C181.578 17.4819 179.988 18.7085 178.468 21.1109C176.938 23.5133 175.838 26.1865 175.168 29.1134C177.738 28.9696 179.998 27.9544 181.948 26.068C183.898 24.1985 184.878 22.0076 184.878 19.4952Z" fill="#2C3C68"/>
<path d="M231.328 33.1316C228.518 40.1189 224.368 43.6126 218.868 43.6126C216.318 43.6126 214.358 43.0374 212.998 41.8869C211.638 40.7365 210.958 39.3914 210.958 37.8519C210.958 36.3123 211.448 33.673 212.428 29.9256L215.368 18.7002C213.118 18.7002 211.418 19.4953 210.248 21.0772C209.078 22.6675 208.098 25.0446 207.288 28.2083C206.478 31.3805 205.818 33.8337 205.298 35.5763C204.778 37.3189 204.128 38.7824 203.368 39.9582C201.818 42.3945 199.348 43.6041 195.948 43.6041C193.508 43.6041 191.668 42.9781 190.438 41.7262C189.208 40.4742 188.588 38.8839 188.588 36.9552C188.588 35.0265 189.398 33.7153 191.008 33.0132C191.508 32.7932 192.188 32.6833 193.038 32.6833C193.888 32.6833 194.638 32.954 195.278 33.4954C195.918 34.0367 196.238 34.7642 196.238 35.6778C196.238 36.5914 195.968 37.2597 195.418 37.6996C194.878 38.131 194.248 38.3171 193.558 38.241C193.578 38.6301 193.758 39.0277 194.098 39.4337C194.438 39.8398 195.128 40.0428 196.188 40.0428C197.248 40.0428 198.108 39.7383 198.788 39.1292C199.988 38.0803 200.948 36.1008 201.668 33.1824L202.648 29.0035C204.568 21.111 207.468 16.6107 211.348 15.511C212.608 15.1388 213.998 14.9612 215.498 14.9612H225.368L220.628 33.3769C220.348 34.4682 220.208 35.2549 220.208 35.754C220.208 37.3358 221.098 38.131 222.888 38.131C224.238 38.131 225.318 37.6911 226.128 36.8198C226.938 35.9401 227.728 34.7135 228.518 33.1316H231.328Z" fill="#2C3C68"/>
<path d="M238.918 43.5024C235.148 43.5024 232.318 42.7919 230.418 41.3707C228.518 39.9496 227.578 37.8263 227.578 34.9925C227.578 32.1586 227.998 29.6547 228.858 27.4553C232.278 18.793 237.968 14.4619 245.918 14.4619C251.648 14.4619 254.518 17.4226 254.518 23.3356C254.518 29.2571 252.998 34.0958 249.978 37.8517C248.538 39.6196 246.828 41.007 244.848 41.9967C242.848 43.0033 240.878 43.5024 238.918 43.5024ZM240.978 38.41C242.158 38.41 243.258 37.8686 244.278 36.7774C246.308 34.5272 247.688 31.3465 248.428 27.2353C248.818 25.2813 249.018 23.5725 249.018 22.1175C249.018 20.6625 248.848 19.5882 248.508 18.9115C248.168 18.2263 247.448 17.8879 246.338 17.8879C244.228 17.8879 242.228 19.7997 240.358 23.6233C238.488 27.4468 237.548 30.8474 237.548 33.8166C237.548 35.6438 237.748 36.8027 238.138 37.2849C238.528 37.7755 238.948 38.0801 239.378 38.2154C239.808 38.3508 240.338 38.41 240.978 38.41Z" fill="#2C3C68"/>
<path d="M34.1984 57.7479C34.1984 60.7763 32.8384 62.282 30.1084 62.282C28.7484 62.282 27.6484 61.8591 26.8184 61.0131C27.5184 60.6917 28.1384 60.0911 28.6784 59.2113C29.2184 58.3316 29.4884 57.4518 29.4884 56.5805C29.4884 55.7092 29.2184 54.9732 28.6784 54.3726C28.1384 53.772 27.2784 53.476 26.0984 53.476C24.9184 53.476 23.8184 53.8143 22.8084 54.4826C21.7984 55.1509 20.8484 56.0645 19.9584 57.2234C18.1584 59.5243 16.6984 62.4766 15.5584 66.0549C14.4284 69.6416 13.8584 72.8899 13.8584 75.8168C13.8584 78.7353 14.3684 80.8501 15.3784 82.1528C16.3884 83.4555 18.1284 84.1069 20.5884 84.1069C25.4284 84.1069 29.2884 82.4658 32.1684 79.1836L33.4984 79.6911C31.6484 83.6585 28.1184 86.4162 22.9084 87.9474C20.8684 88.5564 18.8584 88.861 16.8884 88.861C16.8284 88.861 16.7784 88.861 16.7184 88.861C12.4284 88.8271 9.26837 87.8881 7.23837 86.0271C5.21837 84.1745 4.19836 81.1884 4.19836 77.0772C4.19836 72.966 4.99837 68.8633 6.60837 64.7606C8.47837 59.9304 11.2384 56.3098 14.8984 53.9074C17.6984 52.0802 20.8984 51.175 24.4884 51.175C28.9884 51.175 31.9684 52.3678 33.4284 54.7533C33.9384 55.5823 34.1984 56.5805 34.1984 57.7479Z" fill="#2C3C68"/>
<path d="M54.3484 73.3552C54.5583 73.9135 54.6583 74.8609 54.6583 76.1975C54.6583 77.534 54.3483 78.9467 53.7183 80.444C53.0983 81.9413 52.1883 83.261 50.9983 84.4199C48.3883 86.9661 44.9884 88.235 40.8084 88.235C37.6084 88.235 35.2084 87.4314 33.5884 85.8326C31.9683 84.2338 31.1583 82.1105 31.1583 79.4628C31.1583 76.815 31.9483 73.296 33.5083 68.9141C35.2083 64.1431 37.3384 60.1249 39.8984 56.8596C42.8884 53.0361 46.0383 51.1243 49.3483 51.1243C51.1683 51.1243 52.6583 51.6403 53.8183 52.6723C54.9784 53.7043 55.5684 55.4892 55.5684 58.0355C55.5684 60.5817 54.5184 63.6017 52.4184 67.1123L50.8284 69.6585C51.6584 70.0138 52.3884 70.4959 53.0184 71.1219C55.5684 71.1219 58.3784 70.4621 61.4484 69.1255C62.2984 68.7533 63.0384 68.3896 63.6584 68.0174L64.1984 69.3624C61.9184 71.3842 58.6384 72.7123 54.3484 73.3552ZM39.8183 79.5473C39.8183 82.3981 40.9984 83.8193 43.3684 83.8193C45.1684 83.8193 46.6084 83.1087 47.7084 81.6791C48.8084 80.2579 49.3584 78.8029 49.3584 77.3226C49.3584 75.8422 49.1883 74.8102 48.8483 74.2349C48.2383 74.4295 47.5183 74.5226 46.6583 74.5226C45.8083 74.5226 45.1084 74.3111 44.5584 73.8881C44.0084 73.4651 43.7384 72.9322 43.7384 72.2893C43.7384 71.1981 44.0884 70.4283 44.7984 69.9715C45.5084 69.5147 46.5083 69.244 47.7883 69.1678C49.5683 66.444 50.8083 63.5847 51.5084 60.5732C51.7384 59.5497 51.8483 58.5515 51.8483 57.5871C51.8483 56.6228 51.6984 55.9376 51.3984 55.5485C51.0984 55.1593 50.6184 54.9563 49.9783 54.9563C48.7883 54.9563 47.5383 55.9968 46.2283 58.0778C44.0683 61.5376 42.2283 66.6724 40.6983 73.4905C40.1083 76.1044 39.8183 78.1262 39.8183 79.5473Z" fill="#2C3C68"/>
<path d="M67.3983 77.678C63.7083 76.959 61.8683 75.0557 61.8683 71.968C61.8683 68.0006 64.5483 65.3867 69.8983 64.1431C71.8483 63.6948 74.2683 63.4749 77.1583 63.4749H85.9883C83.7383 72.3402 82.4283 77.4581 82.0583 78.8285C81.6883 80.1989 81.5083 81.0956 81.5083 81.527C81.5083 82.9059 82.2883 83.5911 83.8383 83.5911C85.0083 83.5911 85.9483 83.2104 86.6483 82.4491C87.3483 81.6878 88.0383 80.6219 88.7183 79.243H91.1583C88.7183 85.3083 85.1183 88.3452 80.3483 88.3452C78.1183 88.3452 76.4183 87.8461 75.2583 86.8479C74.0983 85.8497 73.5083 84.6993 73.5083 83.405C73.5083 82.1107 73.8583 80.1905 74.5583 77.6442C73.4983 77.8388 72.4083 77.9318 71.2983 77.9318C70.2183 81.7385 69.2783 84.2002 68.4583 85.3168C67.6483 86.4334 66.7783 87.2117 65.8483 87.6685C64.9183 88.1253 63.8383 88.3537 62.6083 88.3537C60.3783 88.3537 58.6983 87.8207 57.5683 86.7549C56.4383 85.689 55.8783 84.3101 55.8783 82.6098C55.8783 80.9095 56.5783 79.759 57.9783 79.15C58.4083 78.9554 58.9983 78.8623 59.7383 78.8623C60.4783 78.8623 61.1283 79.0992 61.6783 79.5729C62.2383 80.0466 62.5183 80.6811 62.5183 81.4678C62.5183 82.2545 62.2783 82.8467 61.8083 83.2189C61.3383 83.5911 60.7983 83.7518 60.1883 83.6841C60.2983 84.7246 61.0483 85.2407 62.4283 85.2407C63.8083 85.2407 64.8283 84.547 65.4783 83.1512C66.1283 81.7554 66.7783 79.9282 67.3983 77.678ZM77.4983 66.1311H76.1083C73.7983 66.1311 72.0683 66.6556 70.9183 67.713C69.7683 68.7704 69.1883 70.0816 69.1883 71.6381C69.1883 73.1946 69.5983 74.252 70.4083 74.7934C71.2183 75.3348 72.2183 75.6055 73.3883 75.6055H74.2983C74.5783 75.6055 74.8383 75.5717 75.0683 75.5125L77.4983 66.1311Z" fill="#2C3C68"/>
<path d="M124.638 88.3364C119.678 88.3364 117.198 86.4839 117.198 82.7872C117.198 81.4422 117.638 79.302 118.508 76.3498C119.378 73.406 119.818 71.3758 119.818 70.2507C119.818 68.5673 119.118 67.7299 117.718 67.7299C116.318 67.7299 115.068 68.6688 113.968 70.5383C113.648 71.0628 113.378 71.6465 113.178 72.264L109.238 88.0319H100.868L105.128 71.0628C105.238 70.6821 105.298 70.2676 105.298 69.8362C105.298 68.3981 104.728 67.6791 103.578 67.6791C102.428 67.6791 101.458 68.1274 100.658 69.0326C99.8584 69.9377 99.2484 71.012 98.8284 72.264L94.8884 88.0319H86.5184L92.6784 63.4495H101.048L100.428 65.9957C102.358 64.1432 104.718 63.2126 107.518 63.2126C110.938 63.2126 112.928 64.6253 113.478 67.4338C115.618 64.6507 118.308 63.2549 121.568 63.2549C123.398 63.2549 124.938 63.6864 126.168 64.5492C127.398 65.412 128.008 66.6809 128.008 68.3389C128.008 70.0054 127.688 71.9256 127.048 74.0996L125.688 78.9044C125.388 79.9449 125.238 80.7908 125.238 81.4507C125.238 82.8633 125.948 83.5655 127.368 83.5655C128.678 83.5655 129.678 83.2102 130.378 82.5081C131.078 81.8059 131.768 80.7062 132.448 79.2174H134.888C133.448 82.838 131.638 85.3673 129.438 86.8307C127.888 87.8374 126.298 88.3364 124.638 88.3364Z" fill="#2C3C68"/>
<path d="M165.528 81.6112C165.528 83.3369 166.868 84.1998 169.548 84.1998C172.228 84.1998 174.728 83.3285 177.058 81.5859C177.908 80.943 178.798 80.1647 179.728 79.2342H181.718C179.558 82.085 177.348 84.2167 175.078 85.6463C172.258 87.4396 169.148 88.3363 165.738 88.3363C159.718 88.3363 156.718 86.4838 156.718 82.7871C156.718 80.7061 157.778 78.9043 159.898 77.3816C160.828 76.7218 161.818 76.1296 162.878 75.6052C163.938 75.0807 164.928 74.5309 165.858 73.9725C167.978 72.6952 169.038 71.291 169.038 69.7683C169.038 68.2456 168.148 67.4843 166.368 67.4843C165.118 67.4843 163.358 68.1949 161.088 69.6245L158.048 71.5701C157.008 72.2553 155.948 72.8813 154.868 73.4396H154.788C154.338 77.923 152.808 81.5097 150.218 84.1913C147.628 86.8813 144.518 88.2264 140.908 88.2264C136.448 88.2264 133.568 86.8306 132.278 84.0475C131.828 83.0747 131.598 81.9919 131.598 80.8076C131.598 79.6233 131.718 78.4221 131.948 77.1955C132.178 75.9689 132.558 74.7085 133.068 73.4142C134.218 70.4873 135.898 68.1103 138.088 66.2831C140.698 64.1091 143.838 63.0178 147.508 63.0178C152.488 63.0178 154.968 65.6317 154.968 70.868V70.9188C155.538 70.5043 156.148 70.0136 156.808 69.4553L158.878 67.7719C160.708 66.3 162.238 65.2764 163.448 64.7012C165.758 63.5846 167.918 63.0178 169.948 63.0178C173.538 63.0178 175.938 64.016 177.128 66.0209C177.568 66.723 177.778 67.6619 177.778 68.8293C177.778 69.9967 177.478 71.0541 176.888 72.01C176.288 72.9659 175.538 73.7864 174.628 74.497C173.718 75.2076 172.728 75.8251 171.658 76.3665C170.588 76.9079 169.598 77.4408 168.688 77.9484C167.778 78.4644 167.018 79.0058 166.418 79.581C165.828 80.1732 165.528 80.8414 165.528 81.6112ZM149.948 73.5919C148.908 73.3719 148.388 72.636 148.388 71.4094C148.388 70.1743 148.998 69.3284 150.208 68.8632C150.128 67.8227 149.938 67.0867 149.628 66.6553C149.318 66.2239 148.708 66.0039 147.798 66.0039C146.018 66.0039 144.318 67.662 142.688 70.9864C141.058 74.3109 140.248 77.2547 140.248 79.8348C140.248 81.4167 140.418 82.4233 140.758 82.8463C141.098 83.2692 141.458 83.5399 141.838 83.6499C142.218 83.7599 142.728 83.8191 143.368 83.8191C144.688 83.8191 146.008 82.8378 147.318 80.8668C148.618 78.8958 149.498 76.4765 149.948 73.5919Z" fill="#2C3C68"/>
<path d="M197.118 79.2346C194.618 85.2998 190.448 88.3367 184.608 88.3367C183.078 88.3367 181.708 87.8714 180.488 86.9409C179.298 86.0104 178.698 84.5131 178.698 82.4491C178.698 81.5186 178.848 80.4527 179.148 79.2346L183.098 63.4665H191.468L187.298 80.1735C187.148 80.7657 187.068 81.3494 187.068 81.9246C187.068 83.0328 187.858 83.5826 189.428 83.5826C190.558 83.5826 191.618 83.1681 192.588 82.3306C193.558 81.4932 194.258 80.4696 194.678 79.2346H197.118ZM193.508 56.936C193.508 58.0272 193.048 58.9408 192.128 59.6852C191.208 60.4297 190.118 60.8019 188.838 60.8019C187.558 60.8019 186.478 60.4297 185.588 59.6768C184.698 58.9239 184.258 58.0103 184.258 56.9444C184.258 55.8786 184.698 54.9481 185.578 54.1698C186.458 53.3916 187.548 53.0024 188.838 53.0024C190.128 53.0024 191.238 53.3831 192.148 54.1529C193.058 54.9142 193.508 55.8447 193.508 56.936Z" fill="#2C3C68"/>
<path d="M201.178 86.5772L198.168 98.5555L189.398 100.332L199.108 61.6309H207.478L206.538 65.3276C208.468 63.9233 210.728 63.2127 213.318 63.2127C216.668 63.2127 218.848 64.5747 219.878 67.2901C220.238 68.2798 220.418 69.4218 220.418 70.7076C220.418 71.9935 220.328 73.2877 220.148 74.5735C219.968 75.8593 219.658 77.1536 219.228 78.4394C218.788 79.7252 218.218 80.9603 217.508 82.1446C216.798 83.3289 215.918 84.3778 214.858 85.2999C213.798 86.2219 212.548 86.9494 211.098 87.4993C209.648 88.0407 207.848 88.3114 205.678 88.3114C203.508 88.3367 202.008 87.7531 201.178 86.5772ZM212.468 70.8345C212.468 68.1107 211.498 66.7572 209.548 66.7572C208.888 66.7572 208.188 66.9602 207.468 67.3578C206.738 67.7554 206.098 68.3644 205.548 69.185L202.118 82.9397C202.458 83.6926 203.288 84.0648 204.598 84.0648C205.908 84.0648 207.088 83.5996 208.128 82.669C210.148 80.8418 211.458 78.2364 212.048 74.8442C212.328 73.3385 212.468 72.0019 212.468 70.8345Z" fill="#2C3C68"/>
<path d="M225.078 58.6361C225.078 58.3316 224.838 58.0525 224.368 57.7987C222.668 56.9866 221.818 56.0223 221.818 54.9311C221.818 53.8399 222.228 52.9517 223.038 52.2749C223.848 51.6067 224.858 51.2683 226.058 51.2683C227.258 51.2683 228.178 51.5644 228.828 52.165C229.468 52.7656 229.788 53.6284 229.788 54.7534C229.788 55.8785 229.168 57.1981 227.948 58.6869C226.718 60.1841 224.988 61.5376 222.758 62.7557C222.398 62.595 222.218 62.375 222.218 62.0874L225.078 58.6361Z" fill="#2C3C68"/>
<path d="M238.168 77.678C234.478 76.959 232.638 75.0557 232.638 71.968C232.638 68.0006 235.318 65.3867 240.668 64.1431C242.618 63.6948 245.038 63.4749 247.928 63.4749H256.758C254.508 72.3402 253.198 77.4581 252.828 78.8285C252.458 80.1989 252.278 81.0956 252.278 81.527C252.278 82.9059 253.058 83.5911 254.608 83.5911C255.348 83.5911 256.008 83.4388 256.598 83.1343C256.178 86.2389 254.358 87.973 251.118 88.3452C248.888 88.3452 247.188 87.8461 246.028 86.8479C244.868 85.8497 244.278 84.6993 244.278 83.405C244.278 82.1107 244.628 80.1905 245.328 77.6442C244.268 77.8388 243.178 77.9318 242.068 77.9318C240.988 81.7385 240.048 84.2002 239.228 85.3168C238.418 86.4334 237.548 87.2117 236.618 87.6685C235.688 88.1253 234.608 88.3537 233.378 88.3537C231.148 88.3537 229.468 87.8207 228.338 86.7549C227.208 85.689 226.648 84.3101 226.648 82.6098C226.648 80.9095 227.348 79.759 228.748 79.15C229.178 78.9554 229.768 78.8623 230.508 78.8623C231.248 78.8623 231.898 79.0992 232.448 79.5729C232.998 80.0466 233.288 80.6811 233.288 81.4678C233.288 82.2545 233.048 82.8467 232.578 83.2189C232.108 83.5911 231.568 83.7518 230.958 83.6841C231.068 84.7246 231.818 85.2407 233.198 85.2407C234.578 85.2407 235.598 84.547 236.248 83.1512C236.898 81.7554 237.538 79.9282 238.168 77.678ZM248.268 66.1311H246.878C244.568 66.1311 242.838 66.6556 241.688 67.713C240.538 68.7704 239.958 70.0816 239.958 71.6381C239.958 73.1946 240.368 74.252 241.178 74.7934C241.988 75.3348 242.988 75.6055 244.158 75.6055H245.068C245.348 75.6055 245.608 75.5717 245.838 75.5125L248.268 66.1311Z" fill="#2C3C68"/>
<path fill-rule="evenodd" clip-rule="evenodd" d="M185.328 128.256C185.368 128.146 185.358 127.994 185.448 127.934C186.778 127.021 188.318 126.445 189.948 126.039C190.078 126.006 190.228 125.989 190.358 125.972C191.238 125.896 191.828 126.395 191.788 127.156C191.748 127.782 191.388 128.29 190.938 128.755C188.678 131.09 187.228 133.805 185.838 136.537C185.368 137.468 185.038 138.441 184.668 139.405C184.588 139.616 184.598 139.862 184.538 140.226C185.228 140.259 185.828 140.319 186.438 140.31C189.258 140.302 192.078 140.276 194.858 140.742C196.098 140.945 197.348 141.156 198.548 141.486C199.258 141.681 199.958 142.044 200.528 142.467C201.498 143.195 201.588 144.193 200.748 145.022C200.258 145.504 199.628 145.952 198.958 146.24C195.898 147.585 192.628 148.253 189.168 147.89C186.058 147.56 183.558 146.375 182.188 143.846C182.098 143.685 181.978 143.542 181.788 143.271C181.388 143.271 180.898 143.22 180.438 143.279C173.418 144.218 166.448 145.403 159.508 146.705C159.258 146.756 159.028 146.858 158.518 147.01C159.278 147.255 159.788 147.433 160.308 147.585C163.928 148.6 167.368 149.962 170.768 151.392C171.318 151.62 171.808 151.975 172.298 152.297C172.378 152.348 172.408 152.551 172.358 152.618C172.258 152.745 172.058 152.923 171.928 152.914C171.448 152.872 170.948 152.813 170.498 152.669C165.148 150.977 159.628 149.776 154.148 148.465C152.738 148.126 151.408 148.143 149.998 148.397C138.978 150.343 127.968 152.356 116.908 154.149C109.788 155.3 102.618 156.205 95.4383 157.051C90.7683 157.609 86.0483 157.863 81.3283 157.812C78.7883 157.787 76.2583 157.66 73.7783 157.186C72.8883 157.017 72.0083 156.78 71.1683 156.501C70.5183 156.281 69.8883 155.985 69.3383 155.63C67.2483 154.31 66.9683 152.508 68.6583 150.85C69.3383 150.182 70.1683 149.573 71.0583 149.125C72.4983 148.389 74.0183 147.737 75.5583 147.179C79.3983 145.792 83.4183 144.92 87.5183 144.32C95.5883 143.144 103.728 142.679 111.898 142.543C117.748 142.45 123.588 142.577 129.418 142.932C135.388 143.296 141.328 143.914 147.208 144.861C148.478 145.064 149.688 145.064 150.968 144.844C157.448 143.728 163.938 142.619 170.438 141.604C173.128 141.181 175.878 140.995 178.598 140.708C179.498 140.615 180.398 140.522 181.408 140.42C182.308 135.488 185.338 131.436 188.618 127.351C187.748 127.3 187.208 127.562 186.648 127.79C186.218 127.96 185.758 128.07 185.308 128.213C185.298 128.222 185.328 128.256 185.328 128.256ZM141.758 146.265C140.848 146.079 140.318 145.944 139.768 145.868C132.888 144.887 125.978 144.227 119.008 143.939C112.598 143.677 106.208 143.719 99.7983 143.956C95.5783 144.117 91.3683 144.404 87.2083 145.039C82.9683 145.682 78.8383 146.655 74.9583 148.27C73.5783 148.845 72.2683 149.564 71.0183 150.317C70.4183 150.681 69.9383 151.256 69.5483 151.806C69.0383 152.542 69.2483 153.21 70.1483 153.625C70.8783 153.955 71.6883 154.2 72.5083 154.352C74.9983 154.835 77.5383 154.801 80.0783 154.742C85.9283 154.615 91.7083 153.853 97.4783 153.075C102.898 152.348 108.308 151.561 113.708 150.749C122.438 149.446 131.158 148.101 139.878 146.756C140.398 146.68 140.898 146.494 141.758 146.265ZM184.378 142.966C184.538 143.389 184.608 143.753 184.798 144.041C185.698 145.369 187.158 146.113 188.858 146.367C192.108 146.841 195.308 146.553 198.338 145.386C198.898 145.174 199.408 144.81 199.828 144.43C200.398 143.897 200.188 143.119 199.438 142.763C199.138 142.619 198.798 142.501 198.458 142.459C197.558 142.34 196.658 142.213 195.748 142.188C192.508 142.095 189.288 142.366 186.078 142.636C185.538 142.679 185.008 142.839 184.378 142.966Z" fill="#2C3C68"/>
<path fill-rule="evenodd" clip-rule="evenodd" d="M125.278 131.073C125.548 130.912 125.868 130.793 126.078 130.59C126.858 129.821 127.598 129.025 128.358 128.247C129.588 126.978 131.138 126.065 132.808 125.27C133.948 124.728 134.928 125.177 134.988 126.293C135.058 127.393 134.558 128.391 134.038 129.372C133.728 129.956 133.348 130.506 133.218 131.208C133.508 130.937 133.818 130.675 134.078 130.379C135.188 129.135 136.388 127.96 137.898 127.071C138.868 126.496 139.968 126.073 141.008 125.591C141.908 125.177 142.958 125.862 142.988 126.631C143.008 127.215 142.918 127.824 142.708 128.374C142.118 129.981 141.098 131.411 139.998 132.798C139.698 133.171 139.458 133.577 139.228 133.932C139.588 134.304 139.848 134.101 140.078 134.016C141.648 133.424 142.918 132.468 144.078 131.436C144.448 131.115 144.638 130.624 144.828 130.184C145.468 128.696 146.468 127.401 147.838 126.352C148.548 125.802 149.428 125.38 150.288 124.999C150.878 124.737 151.558 124.914 151.818 125.261C152.118 125.65 152.078 126.082 151.798 126.445C151.188 127.249 150.538 128.027 149.878 128.797C148.938 129.914 148.028 131.056 147.508 132.367C147.368 132.739 147.358 133.145 147.288 133.534C148.128 133.695 148.648 133.331 149.128 133.027C151.218 131.716 153.328 130.438 154.628 128.425C155.128 127.655 155.908 127.012 156.608 126.344C156.928 126.031 157.328 125.769 157.728 125.532C158.658 124.982 159.488 124.889 159.818 125.295C160.268 125.845 159.828 126.327 159.538 126.784C158.868 127.833 158.148 128.856 157.448 129.888C156.778 130.87 156.268 131.885 156.098 132.951C156.548 133.331 156.858 133.111 157.148 132.993C158.568 132.418 159.708 131.521 160.738 130.54C161.098 130.201 161.288 129.719 161.508 129.288C162.178 127.951 163.118 126.775 164.368 125.794C165.098 125.227 165.898 124.728 166.928 124.618C167.358 124.576 167.838 124.61 168.018 124.99C168.138 125.236 168.148 125.599 168.008 125.819C167.308 126.919 166.498 127.968 165.808 129.076C165.158 130.125 164.588 131.216 164.018 132.299C163.918 132.494 163.948 132.731 163.898 133.128C164.388 132.984 164.728 132.942 164.988 132.798C166.878 131.732 168.528 130.447 170.048 129.025C170.458 128.636 170.698 128.112 170.978 127.638C171.678 126.462 172.518 125.363 173.648 124.441C174.268 123.941 174.948 123.518 175.848 123.485C176.568 123.451 177.118 123.916 176.928 124.491C176.728 125.058 176.458 125.616 176.128 126.132C175.428 127.232 174.658 128.298 173.938 129.398C173.438 130.159 172.948 130.937 172.588 132.105C173.148 131.775 173.448 131.665 173.648 131.479C174.818 130.362 175.988 129.254 177.098 128.103C178.458 126.699 180.068 125.574 181.928 124.686C182.558 124.381 183.188 124.068 183.888 124.466C184.648 124.889 184.718 125.566 184.508 126.225C184.238 127.08 183.848 127.909 183.458 128.89C184.138 128.67 184.708 128.476 185.288 128.281L185.258 128.247C185.178 128.399 185.148 128.603 185.008 128.704C183.418 129.897 182.098 131.276 180.878 132.748C180.478 133.221 179.968 133.644 179.428 134.016C178.968 134.329 178.168 134.076 178.088 133.577C177.998 133.001 177.938 132.375 178.108 131.825C178.368 130.971 178.768 130.134 179.218 129.33C179.788 128.315 180.468 127.342 181.088 126.369C180.898 126.048 180.608 126.082 180.398 126.242C179.818 126.674 179.208 127.088 178.728 127.596C177.398 128.983 176.138 130.413 174.818 131.809C174.208 132.451 173.598 133.128 172.848 133.653C171.678 134.49 170.568 134.194 170.048 133.001C169.948 132.781 169.908 132.536 169.828 132.316C169.748 132.105 169.658 131.893 169.518 131.555C168.758 132.147 168.118 132.697 167.408 133.171C166.588 133.72 165.758 134.304 164.838 134.702C163.228 135.395 162.008 135.006 161.148 133.661C160.948 133.357 160.808 133.027 160.588 132.621C159.998 133.086 159.518 133.526 158.958 133.881C158.238 134.346 157.498 134.829 156.678 135.15C155.228 135.717 153.818 135.167 153.308 133.898C153.128 133.458 153.098 132.967 152.978 132.384C152.638 132.553 152.328 132.654 152.078 132.832C151.168 133.483 150.308 134.194 149.358 134.812C148.758 135.201 148.078 135.573 147.358 135.767C146.078 136.131 144.948 135.632 144.458 134.583C144.258 134.152 144.178 133.687 144.008 133.086C143.658 133.28 143.378 133.416 143.118 133.577C142.158 134.177 141.218 134.803 140.238 135.37C139.838 135.598 139.368 135.759 138.898 135.886C137.668 136.224 136.658 135.801 136.198 134.786C135.658 133.593 135.938 132.435 136.448 131.301C136.728 130.692 137.178 130.151 137.528 129.567C137.668 129.322 138.038 129.119 137.728 128.687C137.408 128.907 137.068 129.085 136.818 129.33C135.648 130.514 134.478 131.707 133.348 132.917C132.608 133.703 131.918 134.541 131.178 135.336C130.608 135.937 129.808 135.962 129.208 135.395C128.978 135.184 128.798 134.913 128.658 134.642C128.178 133.678 128.118 132.671 128.428 131.665C128.708 130.76 129.068 129.863 129.408 128.924C128.958 128.848 128.818 129.144 128.658 129.338C127.598 130.599 126.558 131.868 125.508 133.137C124.778 134.016 124.088 134.913 123.288 135.742C122.488 136.571 121.258 136.36 120.798 135.353C120.608 134.93 120.548 134.465 120.388 133.864C120.018 134.101 119.728 134.253 119.488 134.439C118.808 134.955 118.188 135.531 117.458 136.004C116.738 136.47 115.978 136.926 115.148 137.239C113.058 138.052 111.238 137.527 110.118 135.852C109.878 135.497 109.708 135.099 109.448 134.626C109.008 134.93 108.638 135.175 108.278 135.438C107.208 136.207 106.208 137.07 105.058 137.747C103.378 138.737 101.948 138.17 101.488 136.444C101.218 135.412 101.388 134.406 101.838 133.467C102.308 132.485 102.938 131.546 103.588 130.633C104.128 129.88 104.788 129.186 105.358 128.509C105.248 128.086 104.928 128.171 104.668 128.188C103.758 128.264 102.858 128.366 101.848 128.467C99.6983 130.413 97.4983 132.418 95.2683 134.397C94.3983 135.167 93.4383 135.877 92.5083 136.597C92.3283 136.732 92.0483 136.783 91.7683 136.893C91.7383 136.69 91.6683 136.563 91.7183 136.503C92.0683 136.131 92.4083 135.759 92.7983 135.412C95.0283 133.433 97.2883 131.462 99.5183 129.482C100.048 129.009 100.528 128.501 101.058 127.985C100.368 126.572 100.698 125.27 101.428 123.992C102.288 122.47 103.358 121.082 105.118 120.177C106.068 119.686 106.778 119.653 107.238 120.092C107.798 120.617 107.618 121.218 107.288 121.751C106.708 122.698 106.078 123.628 105.438 124.551C105.128 124.999 104.768 125.43 104.298 126.031C104.968 126.082 105.438 126.09 105.888 126.149C107.718 126.403 108.678 127.672 108.048 129.161C107.698 129.99 107.098 130.743 106.588 131.521C105.898 132.561 105.158 133.568 104.498 134.617C104.178 135.133 103.878 135.691 104.238 136.402C104.558 136.275 104.908 136.207 105.158 136.038C106.248 135.285 107.308 134.507 108.368 133.729C109.088 133.204 109.498 132.587 109.668 131.758C110.038 129.964 111.058 128.399 112.398 126.987C113.298 126.048 114.398 125.312 115.758 124.897C117.568 124.356 118.768 124.847 119.408 126.361C119.928 127.579 119.698 128.721 118.888 129.77C117.678 131.352 116.288 132.756 113.908 133.077C113.788 133.094 113.678 133.204 113.558 133.264C113.518 133.314 113.468 133.357 113.448 133.407C113.178 134.067 113.158 134.761 113.828 135.209C114.448 135.624 115.228 135.378 115.818 135.074C116.888 134.516 117.948 133.915 118.908 133.238C120.328 132.248 121.468 131.106 122.068 129.541C122.748 127.773 123.998 126.234 125.618 124.957C126.018 124.635 126.488 124.347 126.978 124.136C127.638 123.857 128.498 124.364 128.418 124.999C128.358 125.464 128.188 125.938 127.948 126.352C127.298 127.469 126.568 128.56 125.898 129.668C125.618 130.134 125.118 130.54 125.278 131.14C125.168 131.233 125.058 131.326 124.948 131.419C124.998 131.453 125.048 131.487 125.098 131.521C125.168 131.436 125.248 131.352 125.308 131.259C125.368 131.191 125.308 131.123 125.278 131.073ZM114.118 131.606C116.228 130.751 117.108 129.474 117.978 128.205C118.218 127.858 118.398 127.435 117.828 126.987C117.468 127.207 117.028 127.393 116.718 127.68C115.648 128.712 114.868 129.905 114.118 131.606ZM132.358 132.079L132.228 132.071L132.278 132.206L132.358 132.079Z" fill="#2C3C68"/>
<path fill-rule="evenodd" clip-rule="evenodd" d="M93.8783 113.367C90.4983 114.281 87.9983 116.184 85.6983 118.291C84.1783 119.678 83.2183 121.319 82.9483 123.214C82.6283 125.481 83.9183 126.682 86.5783 126.403C87.7383 126.285 88.9383 125.972 89.9683 125.506C91.5083 124.804 92.9883 123.975 94.3483 123.053C97.4483 120.938 99.9683 118.384 101.818 115.389C102.668 114.01 103.308 112.564 103.488 110.999C103.778 108.469 102.728 106.448 100.238 105.001C98.5884 104.037 96.7083 103.546 94.7583 103.225C91.9583 102.759 89.1483 102.836 86.3583 103.275C78.1683 104.57 71.0783 107.64 65.2683 112.733C63.6983 114.112 62.3683 115.643 61.3183 117.343C60.0883 119.348 59.5383 121.463 59.7083 123.722C59.8383 125.422 60.3283 127.004 61.6483 128.349C61.7683 128.467 61.8083 128.645 61.8883 128.78C61.5383 129.076 61.3183 128.823 61.1683 128.679C59.5883 127.215 58.8183 125.447 58.5483 123.519C58.3083 121.784 58.5583 120.084 59.2283 118.418C60.2983 115.77 62.0383 113.477 64.3083 111.498C71.0183 105.661 79.1183 102.125 88.7283 101.178C91.8383 100.873 94.9183 101.152 97.9183 101.905C98.7883 102.125 99.6484 102.421 100.458 102.759C104.898 104.637 107.028 108.258 106.138 112.386C105.758 114.163 105.008 115.821 103.948 117.386C101.558 120.905 98.3784 123.806 94.3684 126.031C92.1684 127.249 89.8084 128.163 87.1483 128.383C86.4583 128.442 85.7383 128.433 85.0483 128.357C81.4583 127.96 80.4283 125.498 80.6283 123.561C80.7583 122.36 81.1983 121.226 82.0183 120.228C84.2283 117.555 87.0183 115.406 90.4284 113.85C91.4984 113.376 92.6183 113.038 93.8783 113.367Z" fill="#2C3C68"/>
<path fill-rule="evenodd" clip-rule="evenodd" d="M69.9983 134.812C70.5883 124.381 74.6383 114.763 82.6883 106.406C83.2583 105.813 83.9484 105.297 84.6384 104.798C84.7984 104.68 85.2284 104.663 85.3984 104.764C85.5684 104.866 85.6383 105.179 85.6283 105.39C85.6183 105.619 85.4984 105.847 85.3883 106.067C85.1784 106.448 84.9684 106.82 84.7084 107.175C80.2684 113.376 77.3384 120.11 75.0084 127.046C73.9584 130.185 73.0184 133.357 72.0184 136.512C71.8784 136.969 71.6784 137.417 71.4284 137.832C71.1984 138.212 70.4083 138.136 70.2183 137.739C70.1083 137.527 70.0184 137.29 70.0084 137.062C69.9784 136.411 69.9983 135.751 69.9983 134.812Z" fill="#2C3C68"/>
<path fill-rule="evenodd" clip-rule="evenodd" d="M169.698 118.562C170.618 118.562 171.338 119.12 171.368 119.856C171.408 120.947 170.278 121.903 168.968 121.894C168.058 121.886 167.308 121.311 167.288 120.592C167.248 119.492 168.348 118.57 169.698 118.562Z" fill="#2C3C68"/>
</svg>
