<svg width="250" height="250" viewBox="0 0 250 250" fill="none" xmlns="http://www.w3.org/2000/svg">
<path fill-rule="evenodd" clip-rule="evenodd" d="M117.792 165.112V145.836C117.792 144.845 117.27 143.997 116.387 143.549C115.503 143.102 114.51 143.183 113.712 143.769L56.3169 185.877C55.6597 186.359 55.2969 187.048 55.2705 187.862C55.2446 188.676 55.5625 189.388 56.1875 189.911L113.583 237.948C114.364 238.602 115.39 238.736 116.313 238.305C117.237 237.874 117.792 237.001 117.792 235.981V218.075C207.276 218.075 236.625 152.289 210.627 105.504C196.247 161.505 149.29 165.112 117.792 165.112Z" fill="#FAD744"/>
<path fill-rule="evenodd" clip-rule="evenodd" d="M110.102 174.298V155.721L59.6035 192.77L56.188 189.911C55.5635 189.388 55.2451 188.677 55.271 187.863C55.2974 187.049 55.6606 186.359 56.3174 185.877L113.712 143.77C114.511 143.184 115.504 143.102 116.388 143.549C117.272 143.997 117.793 144.846 117.793 145.837V165.112C145.956 165.112 186.478 162.229 205.023 121.586C185.863 169.75 141.713 174.298 110.102 174.298Z" fill="#0035E9"/>
<path fill-rule="evenodd" clip-rule="evenodd" d="M132.208 84.8881V104.163C132.208 105.155 132.729 106.003 133.613 106.451C134.497 106.898 135.49 106.817 136.288 106.231L193.683 64.123C194.34 63.641 194.703 62.9516 194.729 62.1371C194.755 61.3232 194.437 60.6112 193.812 60.0888L136.417 12.0517C135.636 11.3979 134.61 11.2636 133.687 11.6947C132.763 12.1259 132.208 12.9984 132.208 14.018V31.9242C42.7241 31.9242 13.375 97.7109 39.3726 144.495C53.7534 88.495 100.71 84.8881 132.208 84.8881Z" fill="#0035E9"/>
<path fill-rule="evenodd" clip-rule="evenodd" d="M139.898 75.7021V94.2793L190.397 57.2305L193.812 60.0889C194.437 60.6118 194.755 61.3232 194.729 62.1372C194.704 62.9512 194.34 63.6411 193.683 64.1226L136.288 106.23C135.489 106.816 134.497 106.898 133.612 106.451C132.729 106.003 132.207 105.154 132.207 104.163V84.8877C104.044 84.8877 63.522 87.771 44.9775 128.414C64.1372 80.2505 108.287 75.7021 139.898 75.7021Z" fill="#FAD744"/>
</svg>
