<svg width="26" height="28" viewBox="0 0 26 28" fill="none" xmlns="http://www.w3.org/2000/svg">
<g filter="url(#filter0_d_2_515)">
<path d="M13 23.8502L12.55 23.3002C12.25 22.9002 4.59998 13.9502 4.59998 8.6002C4.59998 3.9502 8.39998 0.200195 13 0.200195C17.6 0.200195 21.4 4.0002 21.4 8.6002C21.4 13.9502 13.75 22.9502 13.45 23.3002L13 23.8502ZM13 1.3502C8.99998 1.3502 5.79998 4.6002 5.79998 8.5502C5.79998 12.7502 11.35 19.9002 13 21.9502C14.65 19.9002 20.2 12.8002 20.2 8.5502C20.2 4.6002 17 1.3502 13 1.3502Z" fill="#033476"/>
<path d="M12.9999 11.8004C11.2499 11.8004 9.79993 10.3504 9.79993 8.6004C9.79993 6.8504 11.2499 5.40039 12.9999 5.40039C14.7499 5.40039 16.1999 6.8504 16.1999 8.6004C16.1999 10.3504 14.7499 11.8004 12.9999 11.8004ZM12.9999 6.6004C11.8999 6.6004 10.9999 7.5004 10.9999 8.6004C10.9999 9.7004 11.8999 10.6004 12.9999 10.6004C14.0999 10.6004 14.9999 9.7004 14.9999 8.6004C14.9999 7.5004 14.0999 6.6004 12.9999 6.6004Z" fill="#033476"/>
</g>
<defs>
<filter id="filter0_d_2_515" x="0.599976" y="0.200195" width="24.8" height="31.6499" filterUnits="userSpaceOnUse" color-interpolation-filters="sRGB">
<feFlood flood-opacity="0" result="BackgroundImageFix"/>
<feColorMatrix in="SourceAlpha" type="matrix" values="0 0 0 0 0 0 0 0 0 0 0 0 0 0 0 0 0 0 127 0" result="hardAlpha"/>
<feOffset dy="4"/>
<feGaussianBlur stdDeviation="2"/>
<feComposite in2="hardAlpha" operator="out"/>
<feColorMatrix type="matrix" values="0 0 0 0 0 0 0 0 0 0 0 0 0 0 0 0 0 0 0.25 0"/>
<feBlend mode="normal" in2="BackgroundImageFix" result="effect1_dropShadow_2_515"/>
<feBlend mode="normal" in="SourceGraphic" in2="effect1_dropShadow_2_515" result="shape"/>
</filter>
</defs>
</svg>
