<svg width="44" height="44" viewBox="0 0 44 44" fill="none" xmlns="http://www.w3.org/2000/svg">
<g clip-path="url(#clip0_2_617)">
<path fill-rule="evenodd" clip-rule="evenodd" d="M22 0C34.1507 0 44 9.8493 44 22C44 34.1507 34.1507 44 22 44C9.8493 44 0 34.1507 0 22C0 9.8493 9.8493 0 22 0Z" fill="url(#paint0_linear_2_617)"/>
<path fill-rule="evenodd" clip-rule="evenodd" d="M22.0009 26.247C19.6548 26.247 17.753 24.3461 17.753 22C17.753 19.6539 19.6548 17.753 22 17.753C24.3461 17.753 26.2479 19.6539 26.2479 22C26.2479 24.3452 24.3461 26.247 22 26.247H22.0009ZM16.7466 9.33453C12.0227 9.55024 9.54078 12.2074 9.33539 16.7466C9.17727 20.1824 9.17727 23.8176 9.33539 27.2542C9.54078 31.7926 12.0227 34.4506 16.7466 34.6655C20.1833 34.8227 23.8176 34.8227 27.2542 34.6655C31.7934 34.4584 34.4498 31.9799 34.6663 27.2542C34.8227 23.8167 34.8219 20.1841 34.6663 16.7466C34.4549 12.1198 31.8811 9.54508 27.2542 9.33453C23.8176 9.17727 20.1833 9.17727 16.7466 9.33453ZM27.1494 11.6282C30.5817 11.7846 32.2171 13.4183 32.3727 16.8506C32.5273 20.2159 32.5265 23.7841 32.3727 27.1494C32.2128 30.6806 30.4932 32.2197 27.1494 32.3727C23.7832 32.5256 20.2177 32.5256 16.8515 32.3727C13.5077 32.2197 11.7889 30.6806 11.6282 27.1494C11.4744 23.7841 11.4744 20.2159 11.6282 16.8506C11.7803 13.5068 13.3203 11.7898 16.8515 11.6282C20.2177 11.4744 23.7832 11.4735 27.1494 11.6282ZM30.3316 15.198C30.3316 16.042 29.6467 16.7269 28.8028 16.7269C27.9572 16.7269 27.2731 16.0428 27.2731 15.198C27.2731 14.3533 27.9572 13.6692 28.8028 13.6692C29.6467 13.6684 30.3316 14.3533 30.3316 15.198ZM22.0009 15.4567C18.3872 15.4567 15.4567 18.3863 15.4567 22C15.4567 25.6137 18.3872 28.5433 22 28.5433C25.6145 28.5433 28.5441 25.6137 28.5441 22C28.5441 18.3863 25.6145 15.4567 22.0009 15.4567Z" fill="white"/>
</g>
<defs>
<linearGradient id="paint0_linear_2_617" x1="5.82914" y1="7.08297" x2="40.7507" y2="33.5139" gradientUnits="userSpaceOnUse">
<stop stop-color="#904A97"/>
<stop offset="1" stop-color="#F7B648"/>
</linearGradient>
<clipPath id="clip0_2_617">
<rect width="44" height="44" fill="white"/>
</clipPath>
</defs>
</svg>
