<svg width="276" height="109" viewBox="0 0 276 109" fill="none" xmlns="http://www.w3.org/2000/svg">
<path d="M189.422 91.102C187.512 91.6096 185.372 91.415 184.512 90.383C183.652 89.3509 183.572 88.3189 183.742 86.5594C184.312 82.7696 186.392 79.0898 189.992 76.7297C190.462 76.3829 191.462 76.459 191.462 77.1104C190.012 80.8663 188.072 84.5884 187.722 88.5727C187.462 89.5286 188.832 89.4778 189.542 89.2748C191.322 88.8518 194.552 87.4984 195.592 84.8337C196.632 82.169 197.392 83.9032 197.392 83.9032C196.232 88.7503 191.332 90.5945 189.422 91.102Z" fill="#2C3C68"/>
<path d="M189.772 69.5396C191.212 69.2435 193.122 69.8103 193.592 71.096C194.112 72.6948 191.362 73.9213 189.982 72.8639C189.382 72.4325 189.472 71.6712 188.992 71.1637C188.422 70.5716 188.962 69.7003 189.772 69.5396Z" fill="#2C3C68"/>
<path d="M111.202 89.5375C111.662 91.2801 112.802 93.1073 114.852 93.6487C117.372 94.3508 119.922 93.2257 121.982 91.9907C123.132 91.2716 123.672 90.8825 125.292 89.6559C126.912 88.4293 129.592 84.5719 128.632 82.5671C127.352 85.4348 127.202 85.9592 125.292 87.6342C123.382 89.3006 121.642 90.045 119.642 91.0179C118.372 91.5931 116.682 92.2952 115.382 91.3901C114.092 90.3242 114.022 88.607 114.312 87.1689C118.162 84.1997 121.612 80.8668 125.172 77.6353C128.412 74.4039 131.842 70.9187 132.812 66.5453C133.232 64.8704 132.952 62.8655 131.252 61.8166C129.522 60.7169 127.132 61.0214 125.392 61.9519C119.542 65.251 115.352 70.4704 112.662 76.0873C110.952 79.5979 110.562 83.5145 110.912 87.2958C111.092 87.9387 110.282 88.1925 109.842 88.5308C99.7522 94.6299 92.7022 96.2964 85.9422 95.129C82.5922 94.5538 81.2822 91.7961 81.1222 89.3514C80.9022 84.132 83.4922 79.1918 86.4522 74.7338C89.2822 70.648 92.6522 66.7652 96.9322 63.6776C101.092 60.7761 106.272 58.5428 111.762 58.5682C113.252 58.6274 114.992 58.6867 116.072 59.6764C117.032 60.6238 116.442 61.9519 115.852 62.9163C114.152 65.5217 111.482 67.5858 108.622 69.2522C107.392 69.8613 106.082 70.7072 104.572 70.5296C104.372 68.5755 105.272 66.5707 106.682 65.0395C105.242 64.8027 104.362 66.08 103.812 67.0021C103.142 68.2963 102.282 69.8867 103.162 71.2571C104.052 72.3991 105.912 72.1876 107.182 71.68C111.112 70.1997 114.362 67.5689 116.662 64.5235C117.682 63.0855 118.682 61.2583 117.772 59.6002C116.852 57.9422 114.552 57.3924 112.572 57.1894C106.572 56.6226 100.592 58.306 95.4722 60.8522C88.4722 64.4559 83.3122 70.1574 79.6722 76.2819C77.1022 80.5707 75.5522 85.4009 76.0322 90.2312C76.3922 92.8366 77.6222 95.459 79.9422 97.2608C82.5022 99.2064 86.1922 99.6124 89.5222 99.0795C98.8022 97.5907 104.832 94.5707 111.202 89.5375ZM118.642 74.2686C120.722 70.4873 123.212 66.6975 127.022 64.0921C128.082 63.28 130.212 63.1278 130.722 64.5404C131.272 67.2982 129.702 69.929 128.062 72.1622C124.382 76.984 119.402 80.8414 114.682 84.8342C115.422 81.1713 116.722 77.5846 118.642 74.2686Z" fill="#2C3C68"/>
<path d="M194.732 101.913C206.722 95.0524 205.642 89.9515 207.312 86.424C208.982 82.8965 211.422 83.8016 210.032 85.7642C207.572 89.2579 204.702 90.3237 202.072 90.5267C199.622 90.7128 198.332 89.5032 198.552 87.9467C198.722 84.0301 201.262 80.4179 204.522 77.7364C206.312 76.5098 208.322 75.1055 210.732 75.0463C211.192 76.5775 210.082 78.0324 208.952 79.1491C208.002 79.995 207.042 80.9763 205.642 81.2808C205.062 81.34 205.422 81.9406 205.832 81.966C206.752 82.0421 207.542 81.5261 208.262 81.1116C210.462 79.7412 212.432 77.7956 212.712 75.4101C212.912 74.1327 211.562 72.9907 210.052 72.9907C204.892 72.9907 200.772 76.0445 198.562 79.0645C196.362 82.0844 194.502 85.7811 195.582 89.3763C196.322 91.711 198.062 93.2506 202.282 92.6077C206.502 91.9564 209.442 89.3425 211.262 86.2464C214.162 81.3146 207.522 80.9763 206.172 87.2869C205.232 91.6688 202.502 96.6597 190.002 100.661C180.662 103.656 160.302 104.84 144.552 100.813C128.802 96.7866 93.6322 91.3135 77.3422 108.765C90.2222 98.9606 109.952 96.4228 128.142 101.168C146.342 105.914 174.182 113.671 194.732 101.913Z" fill="#2C3C68"/>
<path d="M172.962 87.7863C167.522 86.3905 162.052 87.0926 159.322 87.6086C158.992 86.4328 158.412 85.2569 157.312 84.4364C156.742 83.9373 155.972 83.4805 155.422 82.9306C154.912 82.4146 154.892 81.6617 155.362 81.1119C156.932 79.2847 159.342 77.7705 162.042 77.6774C162.442 77.6605 162.782 77.9397 162.732 78.2696C162.492 79.8599 160.412 80.7058 159.602 82.0593C161.732 81.4418 163.562 79.8599 164.012 77.9735C164.242 77.1022 163.482 76.2224 162.472 76.0448C158.402 74.9958 154.052 76.8653 151.582 79.5977C150.472 80.8158 150.362 81.8817 150.832 83.0068C151.872 85.2485 155.022 85.9844 156.232 88.0569C151.682 89.0128 146.822 90.6455 144.212 94.1392C142.792 95.8649 144.202 98.6395 146.692 98.9102C149.132 99.1978 151.532 98.2758 153.432 97.0407C156.422 95.1966 158.832 92.4812 159.392 89.3428C162.602 88.7337 166.302 88.0485 172.252 88.4715C173.452 88.4715 173.522 87.9724 173.522 87.9724L172.962 87.7863ZM147.912 97.0238C145.932 97.2183 144.982 95.6957 146.132 94.7144C148.612 92.0159 152.622 90.7132 156.402 89.8249C155.182 93.141 151.612 96.66 147.912 97.0238Z" fill="#2C3C68"/>
<path d="M185.662 87.93C182.572 87.1349 179.262 86.9995 176.062 87.3463C175.732 86.1705 175.152 84.9947 174.052 84.1741C173.482 83.675 172.712 83.2182 172.162 82.6684C171.652 82.1524 171.632 81.3995 172.102 80.8497C173.672 79.0225 176.082 77.5082 178.782 77.4152C179.182 77.3983 179.522 77.6774 179.472 78.0073C179.232 79.5977 177.152 80.4436 176.342 81.7971C178.472 81.1796 180.302 79.5977 180.752 77.7113C180.982 76.84 180.222 75.9602 179.212 75.7826C175.142 74.7336 170.792 76.6031 168.322 79.3354C167.212 80.5536 167.102 81.6194 167.572 82.7445C168.612 84.9862 171.762 85.7222 172.972 87.7947C168.422 88.7506 163.562 90.3832 160.952 93.8769C159.532 95.6026 160.942 98.3772 163.432 98.6479C165.872 98.9355 168.272 98.0134 170.172 96.7784C173.162 94.9343 175.572 92.2189 176.132 89.0805C178.462 88.8521 180.812 88.6998 183.152 88.8521L185.662 87.93ZM164.652 96.7615C162.672 96.956 161.722 95.4334 162.872 94.4521C165.352 91.7536 169.362 90.4509 173.142 89.5627C171.922 92.8787 168.352 96.3893 164.652 96.7615Z" fill="#2C3C68"/>
<path d="M147.662 89.4444C146.052 91.5507 144.352 92.5996 142.032 93.251C140.452 93.6824 138.752 92.9888 137.862 91.8722C136.352 90.2057 136.352 87.9978 136.452 85.993C135.342 87.7356 134.152 89.4867 132.492 90.8993C131.612 91.6691 130.042 91.7283 129.092 91.0093C128.162 90.341 127.752 89.3936 127.652 88.3108C127.552 87.228 127.802 84.4365 128.492 82.8716C129.612 80.3592 131.552 77.8637 134.582 76.7894C136.442 76.0873 139.002 76.6709 139.812 78.3374C140.202 79.0734 139.602 79.8854 138.742 80.1223C138.702 78.8027 136.692 79.2425 135.842 79.7755C132.292 81.848 131.062 85.7815 131.082 89.2498C133.302 88.2685 134.682 86.3567 136.192 84.7326C136.962 84.0728 136.772 82.9477 137.722 82.4147C138.592 81.941 139.752 82.4401 140.042 83.2268C140.972 85.5616 139.932 88.2009 141.222 90.4595C143.712 89.9942 145.912 88.4631 147.052 86.5682C148.142 84.335 149.272 87.338 147.662 89.4444Z" fill="#2C3C68"/>
<path d="M105.792 55.5056C105.792 55.5056 83.4622 59.879 75.0822 79.183C66.7022 98.4869 80.3422 100.754 80.3422 100.754C80.3422 100.754 62.9322 98.1147 71.2522 78.6585C79.5622 59.1938 104.492 55.8778 105.792 55.5056Z" fill="#78BFB9"/>
<path d="M87.3921 104.07C87.3921 104.07 108.782 94.266 136.682 105.052C121.262 101.66 109.162 100.001 87.3921 104.07Z" fill="#78BFB9"/>
<path d="M199.482 94.2153C182.972 106.617 154.682 100.45 154.682 100.45C154.682 100.45 182.892 103.317 199.482 94.2153Z" fill="#78BFB9"/>
<path d="M212.542 82.4146C212.542 82.4146 215.742 86.9572 207.062 92.5657C205.622 96.5669 203.632 101.964 190.542 106.024C202.972 103.3 206.652 98.944 208.912 93.6992C208.912 93.6907 216.432 86.2635 212.542 82.4146Z" fill="#78BFB9"/>
<path d="M36.5599 41.4639L23.2499 11.5689L9.70987 41.4639H-0.00012207L18.5599 0.800293H27.8399L46.3299 41.4639H36.5599Z" fill="#2C3C68"/>
<path d="M74.4598 11.3825H83.3799V41.455H74.4598V38.2744C72.7198 39.6786 70.9698 40.6853 69.2198 41.3028C67.4698 41.9203 65.5698 42.2248 63.5198 42.2248C58.9298 42.2248 54.9598 40.7191 51.6098 37.7076C48.2598 34.6961 46.5798 30.9487 46.5798 26.4738C46.5798 21.8296 48.1998 18.023 51.4398 15.0538C54.6798 12.0846 58.6199 10.6042 63.2599 10.6042C65.3899 10.6042 67.3899 10.9426 69.2599 11.6278C71.1299 12.313 72.8599 13.3366 74.4499 14.6985V11.3825H74.4598ZM65.0798 17.5747C62.3198 17.5747 60.0298 18.4037 58.2098 20.0447C56.3898 21.6943 55.4698 23.8091 55.4698 26.3892C55.4698 28.9861 56.3998 31.1263 58.2498 32.8013C60.1098 34.4762 62.3898 35.3136 65.1098 35.3136C67.9098 35.3136 70.2298 34.4931 72.0798 32.8436C73.9298 31.194 74.8499 29.0369 74.8499 26.3638C74.8499 23.7499 73.9298 21.6266 72.0798 20.0024C70.2298 18.3783 67.8998 17.5747 65.0798 17.5747Z" fill="#2C3C68"/>
<path d="M95.6699 28.7156V23.327H97.4299C98.6299 23.327 99.6699 23.0902 100.57 22.608C101.46 22.1258 101.91 21.356 101.91 20.2817C101.91 19.3596 101.51 18.5983 100.72 17.9977C99.9199 17.3971 98.9499 17.101 97.7899 17.101C96.3299 17.101 94.4999 17.7016 92.2999 18.8944L88.7699 13.7004C91.8399 11.6363 95.2599 10.6042 99.0299 10.6042C102.49 10.6042 105.37 11.3656 107.64 12.8883C109.92 14.4109 111.06 16.4581 111.06 19.0382C111.06 21.6521 109.4 23.7754 106.09 25.3996C110.51 26.7784 112.72 29.2824 112.72 32.8945C112.72 35.5846 111.48 37.8178 108.99 39.5858C106.51 41.3538 103.07 42.242 98.6899 42.242C93.8699 42.242 89.8999 41.1 86.7599 38.816L91.6899 33.5628C93.7999 34.8909 95.8099 35.5507 97.7099 35.5507C99.2399 35.5507 100.45 35.2462 101.34 34.6286C102.23 34.0111 102.68 33.216 102.68 32.2347C102.68 31.2957 102.26 30.4751 101.42 29.773C100.58 29.0709 99.4299 28.7241 97.9699 28.7241H95.6699V28.7156Z" fill="#2C3C68"/>
<path d="M113.23 11.3831H122.35L131.58 30.2555L141.77 11.3831H150.91L128.64 52.461H119.43L126.74 39.2139L113.23 11.3831Z" fill="#2C3C68"/>
<path d="M162.17 11.3825V14.6985C163.78 13.3366 165.52 12.313 167.4 11.6278C169.27 10.9426 171.28 10.6042 173.41 10.6042C178.05 10.6042 181.99 12.0846 185.24 15.0538C188.49 18.023 190.11 21.8297 190.11 26.4738C190.11 30.9488 188.43 34.6962 185.08 37.7077C181.73 40.7192 177.75 42.2249 173.15 42.2249C171.1 42.2249 169.2 41.9119 167.43 41.3029C165.66 40.6938 163.91 39.6787 162.17 38.2745V52.4522H153.31V11.3825H162.17ZM171.55 17.5747C168.74 17.5747 166.41 18.3868 164.56 20.0109C162.71 21.6351 161.78 23.7499 161.78 26.3723C161.78 29.0454 162.71 31.2025 164.56 32.8521C166.41 34.5016 168.74 35.3222 171.55 35.3222C174.27 35.3222 176.57 34.4847 178.43 32.8098C180.29 31.1349 181.22 28.9947 181.22 26.3977C181.22 23.8176 180.3 21.7028 178.47 20.0532C176.65 18.4037 174.34 17.5747 171.55 17.5747Z" fill="#2C3C68"/>
<path d="M203.71 22.2194H217.04V11.3831H225.96V41.4557H217.04V28.9952H203.71V41.4642H194.79V11.3831H203.71V22.2194Z" fill="#2C3C68"/>
<path d="M247.95 0.800293H257.23L275.72 41.4639H266.21L262.45 33.0893H242.84L238.93 41.4639H229.42L247.95 0.800293ZM252.64 11.5774L246.19 25.5351H259.05L252.64 11.5774Z" fill="#2C3C68"/>
</svg>
