<svg width="53" height="24" viewBox="0 0 53 24" fill="none" xmlns="http://www.w3.org/2000/svg">
<path d="M9.738 11.33V5.066C9.738 4.886 9.804 4.73 9.936 4.598C10.068 4.466 10.224 4.4 10.404 4.4H11.268C11.448 4.4 11.604 4.466 11.736 4.598C11.868 4.73 11.934 4.886 11.934 5.066V11.78C11.934 13.592 11.46 14.948 10.512 15.848C9.552 16.748 8.358 17.198 6.93 17.198C5.322 17.198 4.026 16.718 3.042 15.758C2.058 14.81 1.566 13.442 1.566 11.654V5.066C1.566 4.886 1.632 4.73 1.764 4.598C1.896 4.466 2.052 4.4 2.232 4.4H3.114C3.294 4.4 3.45 4.466 3.582 4.598C3.714 4.73 3.78 4.886 3.78 5.066V11.186C3.78 12.434 4.044 13.406 4.572 14.102C5.112 14.786 5.898 15.128 6.93 15.128C8.802 15.128 9.738 13.862 9.738 11.33ZM23.598 16.496L22.482 13.778H17.1L15.984 16.496C15.864 16.832 15.618 17 15.246 17H14.598C14.394 17 14.226 16.934 14.094 16.802C13.962 16.658 13.896 16.49 13.896 16.298C13.896 16.214 13.914 16.13 13.95 16.046L18.666 4.868C18.81 4.532 19.062 4.364 19.422 4.364H20.286C20.646 4.364 20.898 4.532 21.042 4.868L25.758 16.046C25.794 16.13 25.812 16.214 25.812 16.298C25.812 16.49 25.746 16.658 25.614 16.802C25.482 16.934 25.314 17 25.11 17H24.336C23.964 17 23.718 16.832 23.598 16.496ZM21.636 11.708L19.8 7.226L17.946 11.708H21.636Z" fill="#9B9B9B"/>
<path fill-rule="evenodd" clip-rule="evenodd" d="M48.3501 7.50049L49.4 8.55042L41.4501 16.5005L33.5001 8.55042L34.5499 7.50049L41.4501 14.4005L48.3501 7.50049Z" fill="#033476"/>
</svg>
