<svg width="100" height="100" viewBox="0 0 100 100" fill="none" xmlns="http://www.w3.org/2000/svg">
<path d="M41.2297 66.25C40.9578 66.25 40.6922 66.1078 40.5485 65.8546C39.7641 64.4703 38.825 63.2265 37.7563 62.1578C36.6875 61.089 35.4438 60.15 34.0594 59.3656C33.686 59.1546 33.5532 58.6812 33.7625 58.3062L35.275 55.5828C35.375 55.4 35.5454 55.2671 35.7454 55.2109C35.9438 55.1531 36.1594 55.1781 36.3407 55.2812C38.1141 56.2796 39.7047 57.4781 41.0688 58.8421C42.4188 60.1921 43.6125 61.7859 44.6172 63.5812C44.7172 63.7625 44.7438 63.9765 44.686 64.1765C44.6282 64.3765 44.4953 64.5453 44.3141 64.6453L41.6063 66.15C41.4875 66.2187 41.3578 66.25 41.2297 66.25ZM35.4969 58.4015C36.7375 59.1703 37.8672 60.0609 38.861 61.0531C39.8547 62.0453 40.7438 63.175 41.5125 64.4171L42.8594 63.6687C42.0125 62.275 41.0407 61.025 39.9641 59.9484C38.8766 58.8609 37.6297 57.8843 36.2516 57.0421L35.4969 58.4015Z" fill="white"/>
<path d="M45.4281 67.6624C45.1093 67.6624 44.8109 67.4671 44.6953 67.1515C43.6718 64.3718 42.1093 61.9187 40.0515 59.8609C37.9953 57.8046 35.5421 56.2406 32.7609 55.2156C32.364 55.0687 32.1562 54.6343 32.2906 54.2328C34.725 47.0031 38.7015 40.5937 44.1062 35.189C53.2437 26.0515 65.3999 20.9359 78.3343 20.7859C78.5156 20.7781 78.7468 20.8656 78.8953 21.014C79.0437 21.1624 79.1265 21.3656 79.1234 21.5749C78.9734 34.5109 73.8578 46.6656 64.7218 55.8031C59.3156 61.2093 52.9078 65.1859 45.6781 67.6203C45.5953 67.6499 45.5093 67.6624 45.4281 67.6624ZM41.1546 58.7562C43.1953 60.7968 44.7843 63.1968 45.8828 65.8968C52.5937 63.5218 58.5578 59.7578 63.6156 54.6999C72.2718 46.0437 77.1999 34.5874 77.5437 22.3656C65.3218 22.7093 53.8671 27.6374 45.2093 36.2953C40.1531 41.3531 36.3874 47.3156 34.0124 54.0281C36.7171 55.1281 39.1156 56.7156 41.1546 58.7562Z" fill="white"/>
<path d="M75.7453 37.486C75.5453 37.486 75.3453 37.4095 75.1922 37.2579L62.6547 24.7204C62.35 24.4157 62.35 23.9204 62.6547 23.6157C62.9594 23.311 63.4547 23.311 63.7594 23.6157L76.2969 36.1532C76.6016 36.4579 76.6016 36.9532 76.2969 37.2579C76.1438 37.4095 75.9438 37.486 75.7453 37.486ZM21.6578 54.5095C21.4719 54.5095 21.2891 54.4439 21.1422 54.3157C20.9031 54.1063 20.8156 53.7735 20.9187 53.4735C21.975 50.4079 23.6578 47.7048 25.9219 45.4392C29.9062 41.4548 35.2031 39.261 40.8375 39.261C41.1359 39.261 41.4094 39.4313 41.5406 39.7017C41.6719 39.972 41.6375 40.2907 41.4516 40.5251C38.5062 44.2657 36.1406 48.4501 34.4203 52.9642C34.2734 53.347 33.8578 53.547 33.4672 53.4345C29.6344 52.2939 25.5641 52.6485 22.0062 54.4267C21.8969 54.4829 21.7766 54.5095 21.6578 54.5095ZM39.2141 40.8907C34.6094 41.2673 30.3297 43.2407 27.0266 46.5454C25.3656 48.2063 24.0406 50.1267 23.0766 52.2657C26.3156 51.0751 29.8359 50.8907 33.2187 51.747C34.7641 47.861 36.775 44.2188 39.2141 40.8907ZM46.3594 79.2126C46.1375 79.2126 45.9234 79.1189 45.7719 78.947C45.5625 78.7079 45.5187 78.3657 45.6609 78.0829C47.4406 74.5251 47.7922 70.4548 46.6531 66.6204C46.5375 66.2282 46.7422 65.8126 47.1234 65.6673C51.6391 63.9454 55.8234 61.5798 59.5609 58.636C59.7969 58.4501 60.1156 58.4157 60.3859 58.547C60.6562 58.6782 60.8266 58.9501 60.8266 59.2501C60.8266 64.8845 58.6328 70.1829 54.6484 74.1657C52.3859 76.4282 49.6828 78.111 46.6141 79.1704C46.5312 79.2001 46.4453 79.2126 46.3594 79.2126ZM48.3422 66.8689C49.1984 70.2517 49.0141 73.7704 47.8234 77.011C49.9656 76.0454 51.8828 74.722 53.5438 73.061C56.8469 69.7579 58.8203 65.4782 59.1984 60.8751C55.8703 63.3126 52.2281 65.3251 48.3422 66.8689ZM58.9797 47.1798C57.3797 47.1798 55.7797 46.5704 54.5609 45.3517C52.1234 42.9142 52.1234 38.9501 54.5609 36.5126C56.9203 34.1517 61.0391 34.1501 63.4 36.5126C65.8375 38.9501 65.8375 42.9142 63.4 45.3517C62.1797 46.5704 60.5797 47.1798 58.9797 47.1798ZM58.9797 36.2438C57.7266 36.2438 56.55 36.7313 55.6641 37.6173C53.8375 39.4454 53.8375 42.4188 55.6641 44.247C57.4906 46.0735 60.4641 46.0735 62.2937 44.247C64.1203 42.4188 64.1203 39.4454 62.2937 37.6173C61.4078 36.7313 60.2313 36.2438 58.9797 36.2438ZM21.8078 78.886C21.6047 78.886 21.4047 78.8064 21.2547 78.6579C21.0328 78.436 20.9641 78.1017 21.0844 77.811L26.2906 65.0376C27.4828 62.1142 30.5937 60.4517 33.6859 61.072C33.6969 61.0735 33.7094 61.0767 33.7203 61.0798L33.7297 61.0813C36.2937 61.5985 38.3125 63.6173 38.8391 66.2157C39.4672 69.3188 37.7984 72.4298 34.875 73.6204L22.1031 78.8282C22.0062 78.8673 21.9062 78.886 21.8078 78.886ZM32.3812 62.5032C30.3766 62.5032 28.5172 63.711 27.7359 65.6267L23.2312 76.6814L34.2844 72.1751C36.5141 71.2673 37.7844 68.8954 37.3078 66.536C36.9062 64.5454 35.3656 63.0064 33.3859 62.6063L33.3766 62.6048C33.0437 62.5345 32.7109 62.5032 32.3812 62.5032Z" fill="white"/>
<path d="M28.511 72.1812C28.3078 72.1812 28.1078 72.1015 27.9578 71.9531C27.736 71.7312 27.6672 71.3968 27.7875 71.1062L30.5906 64.2296C31.2969 62.4968 33.1469 61.5109 34.9766 61.8781V61.8796C36.5422 62.2109 37.7219 63.4015 38.0328 64.9296C38.4031 66.7703 37.4141 68.6156 35.6828 69.3218L28.8063 72.125C28.711 72.1625 28.611 72.1812 28.511 72.1812ZM34.2031 63.3624C33.2688 63.3624 32.4016 63.925 32.0375 64.8187L29.936 69.9765L35.0922 67.8749C36.1313 67.4515 36.725 66.3453 36.5016 65.2437C36.3141 64.3156 35.5953 63.5968 34.6719 63.4109H34.6672C34.511 63.3781 34.3563 63.3624 34.2031 63.3624Z" fill="white"/>
</svg>
