<svg width="44" height="44" viewBox="0 0 44 44" fill="none" xmlns="http://www.w3.org/2000/svg">
<path d="M22 44C34.1503 44 44 34.1503 44 22C44 9.84974 34.1503 0 22 0C9.84974 0 0 9.84974 0 22C0 34.1503 9.84974 44 22 44Z" fill="url(#paint0_linear_2_635)"/>
<path d="M8.19341 23.0762C10.7652 21.6596 13.636 20.4772 16.3184 19.2889C20.9331 17.3424 25.5661 15.4297 30.2458 13.649C31.1563 13.3456 32.7923 13.0489 32.9528 14.3982C32.8649 16.3082 32.5035 18.2069 32.2557 20.1057C31.6266 24.2813 30.8995 28.4426 30.1905 32.6045C29.9461 33.9908 28.2095 34.7084 27.0984 33.8212C24.4279 32.0175 21.737 30.2312 19.1006 28.3856C18.237 27.5081 19.0378 26.2479 19.8091 25.6213C22.0086 23.4537 24.3411 21.6122 26.4256 19.3326C26.9879 17.9748 25.3265 19.1191 24.7785 19.4698C21.7674 21.5447 18.8301 23.7464 15.6555 25.57C14.0339 26.4626 12.1439 25.6998 10.5231 25.2017C9.0698 24.6 6.94018 23.9938 8.19326 23.0763L8.19341 23.0762Z" fill="white"/>
<defs>
<linearGradient id="paint0_linear_2_635" x1="29.3352" y1="7.3348" x2="18.3352" y2="33" gradientUnits="userSpaceOnUse">
<stop stop-color="#37AEE2"/>
<stop offset="1" stop-color="#1E96C8"/>
</linearGradient>
</defs>
</svg>
