<svg width="19" height="16" viewBox="0 0 19 16" fill="none" xmlns="http://www.w3.org/2000/svg">
<path d="M0.958799 7.78256C2.8292 6.75232 4.91707 5.89242 6.86787 5.02816C10.224 3.61256 13.5935 2.22149 16.9969 0.926424C17.6591 0.705771 18.8489 0.490011 18.9656 1.4713C18.9017 2.86037 18.6389 4.2413 18.4587 5.62224C18.0011 8.65904 17.4723 11.6854 16.9567 14.7122C16.779 15.7205 15.516 16.2424 14.7079 15.5972C12.7657 14.2853 10.8087 12.9862 8.89132 11.644C8.26325 11.0058 8.84567 10.0893 9.40658 9.63356C11.0062 8.05716 12.7026 6.71782 14.2186 5.05996C14.6275 4.07248 13.4192 4.90469 13.0207 5.15971C10.8308 6.66878 8.69456 8.26998 6.38576 9.59625C5.20643 10.2454 3.83189 9.69066 2.65309 9.32842C1.59617 8.8908 0.0473589 8.44991 0.958692 7.78268L0.958799 7.78256Z" fill="white"/>
</svg>
