<svg width="50" height="38" viewBox="0 0 50 38" fill="none" xmlns="http://www.w3.org/2000/svg">
<path d="M1.61845 7.23096H6.11199L10.1612 25.2347L28.1901 25.231C28.7712 25.231 29.3284 25.4618 29.7393 25.8726C30.1501 26.2835 30.3809 26.8407 30.3809 27.4217C30.3809 28.0028 30.1501 28.56 29.7393 28.9708C29.3284 29.3817 28.7712 29.6125 28.1901 29.6125H7.16615" stroke="white" stroke-width="2" stroke-miterlimit="10" stroke-linecap="round" stroke-linejoin="round"/>
<path d="M25.1951 36.7692C26.4206 36.7692 27.4141 35.7757 27.4141 34.5501C27.4141 33.3246 26.4206 32.3311 25.1951 32.3311C23.9695 32.3311 22.976 33.3246 22.976 34.5501C22.976 35.7757 23.9695 36.7692 25.1951 36.7692Z" stroke="white" stroke-width="2" stroke-miterlimit="10" stroke-linecap="round" stroke-linejoin="round"/>
<path d="M12.5674 36.7692C13.793 36.7692 14.7865 35.7757 14.7865 34.5501C14.7865 33.3246 13.793 32.3311 12.5674 32.3311C11.3418 32.3311 10.3483 33.3246 10.3483 34.5501C10.3483 35.7757 11.3418 36.7692 12.5674 36.7692Z" stroke="white" stroke-width="2" stroke-miterlimit="10" stroke-linecap="round" stroke-linejoin="round"/>
<path d="M29.8018 14.8315H7.82152L10.1612 25.2346H23.9766L29.8018 14.8315Z" stroke="white" stroke-width="2" stroke-miterlimit="10" stroke-linecap="round" stroke-linejoin="round"/>
<circle cx="41" cy="9" r="9" fill="#FEDA00"/>
<path d="M41.0426 15C39.7122 15 38.7058 14.4637 38.0235 13.3911C37.3412 12.3184 37 10.8547 37 9C37 7.15642 37.3355 5.69274 38.0064 4.60894C38.6773 3.53631 39.678 3 41.0085 3C42.3049 3 43.2942 3.53073 43.9765 4.59218C44.6588 5.64246 45 7.11173 45 9C45 10.8994 44.6645 12.3743 43.9936 13.4246C43.3227 14.4749 42.339 15 41.0426 15ZM39.0981 9C39.0981 11.8045 39.7463 13.2067 41.0426 13.2067C41.7136 13.2067 42.1912 12.8771 42.4755 12.2179C42.7711 11.5587 42.919 10.486 42.919 9C42.919 7.52514 42.7711 6.4581 42.4755 5.79888C42.1798 5.13966 41.6908 4.81006 41.0085 4.81006C40.3376 4.81006 39.8486 5.15084 39.5416 5.8324C39.2459 6.50279 39.0981 7.55866 39.0981 9Z" fill="white"/>
</svg>
