<svg width="196" height="962" viewBox="0 0 196 962" fill="none" xmlns="http://www.w3.org/2000/svg">
<path d="M204.694 930.939C203.718 927.333 203.295 922.156 203.49 917.071C203.522 908.073 205.247 898.119 209.998 887.394C235.414 830.044 188.813 819.011 191.352 765.328C193.109 728.039 212.927 717.314 210.226 694.695C208.599 681.074 198.381 624 197.339 584.739C195.289 507.542 226.367 476.756 229.719 443.966C233.332 408.342 222.397 390.899 214.489 372.625C213.383 370.067 212.342 367.478 211.398 364.859C209.315 358.973 206.354 351.207 204.727 341.962C203.815 336.106 203.523 332.593 203.523 328.094C203.555 319.095 205.28 309.141 210.031 298.417C235.447 241.066 188.846 230.034 191.384 176.35C193.141 139.061 212.96 128.337 210.259 105.717C208.697 92.6815 199.259 39.7068 197.535 0.753884C193.63 0.753883 190.375 0.753882 188.032 0.753882C188 0.568979 187.967 0.414893 187.935 0.22999L183.248 0.229989C188.911 25.6233 189.887 51.294 181.231 85.0696C171.501 123.067 146.15 142.913 145.369 173.114C144.751 197.244 155.717 220.141 166.261 241.652C178.4 266.49 194.15 297.277 197.274 327.262C199.129 345.043 198.12 359.959 195.192 372.655C193.174 381.346 190.278 389.05 186.73 395.861C166.294 435.122 157.247 445.476 155.978 470.161C154.741 494.845 156.043 503.074 160.794 517.588C179.799 575.771 197.502 610.625 181.231 674.078C171.5 712.076 146.15 731.922 145.369 762.123C144.751 786.252 155.717 809.15 166.261 830.66C178.4 855.499 194.15 886.285 197.274 916.27C199.129 934.052 198.12 948.967 195.192 961.664L197.795 961.664L202.644 961.664L214.554 961.664C213.448 959.106 212.407 956.517 211.463 953.898C209.283 947.95 206.354 940.184 204.694 930.939Z" fill="#FEDA00" fill-opacity="0.8"/>
<path d="M130.04 762.925C125.061 731.029 142.374 695.373 153.634 674.017C157.018 667.607 159.882 662.461 161.412 659.132C169.84 640.796 178.92 613.153 174.364 585.233C166.261 535.494 129.455 476.818 136.321 443.936C143.22 411.055 159.427 402.179 169.775 385.106C172.086 381.285 174.364 377.094 176.414 372.595C184.843 354.166 189.822 330.129 180.449 303.071C172.541 266.738 135.931 211.637 130.041 173.917C125.062 142.021 142.374 106.365 153.634 85.0092C157.019 78.5993 159.882 73.4528 161.412 70.1245C169.417 52.6512 178.041 26.734 174.885 0.200468L160.761 0.200465C163.592 31.8497 154.448 59.2461 144.49 85.04C133.718 112.93 121.97 138.908 123.402 166.274C125.68 208.956 164.243 258.818 173.518 303.595C175.08 311.145 175.698 319.158 175.405 327.263C174.819 343.411 170.524 359.713 162.713 372.656C153.894 387.264 140.617 397.557 123.011 398.481C86.5635 400.361 71.5936 391.239 60.5942 372.656C59.1948 370.314 57.8932 367.849 56.5915 365.199C53.7928 359.497 50.7338 343.288 54.5413 327.232C58.1861 311.916 68.0467 296.754 90.4686 291.114C116.243 284.612 140.715 304.52 139.218 327.232C139.022 330.221 138.404 333.241 137.265 336.261C128.901 358.326 99.4829 349.79 99.9059 338.912C97.9208 345.599 104.495 354.228 116.275 354.782C133.067 355.553 143.123 341.87 144.327 327.263C145.01 318.819 142.765 310.098 137.135 303.657C118.846 282.763 93.6903 283.287 73.0907 293.764C59.2926 300.76 51.6451 313.395 48.521 327.263C45.8199 339.374 46.5683 352.44 49.8225 363.565C50.7663 366.77 51.9703 369.79 53.4673 372.656C63.8485 392.503 86.9215 403.597 110.808 403.843C119.92 403.936 128.381 402.888 136.289 400.269C134.759 402.333 133.295 404.46 131.928 406.925C122.263 416.879 115.396 429.73 111.035 443.998C100.784 477.62 104.494 519.099 118.553 549.208C136.289 587.205 133.685 616.297 127.567 641.505C125.257 650.997 121.937 661.937 118.553 674.079C111.979 697.623 105.275 725.636 105.601 756.391C106.772 862.68 149.403 868.227 149.631 916.271C149.631 916.394 149.631 916.517 149.631 916.64C149.631 943.76 131.733 956.364 110.059 954.545C86.7585 952.573 83.0487 930.785 88.3532 918.551C88.7112 917.719 89.1016 916.979 89.5247 916.271C96.1309 905.269 110.58 907.149 114.485 912.696C115.299 913.682 115.852 914.945 116.08 916.271C117.251 922.496 112.272 931.001 99.8733 927.95C104.885 939.969 124.573 932.234 127.502 923.112C128.283 920.708 128.771 918.459 129.032 916.301C131.733 894.298 109.376 884.93 93.5276 888.905C79.9573 892.326 71.2683 903.666 67.8839 916.301C65.2154 926.255 65.8336 937.041 69.999 945.331C73.5787 952.481 79.0134 957.874 85.522 961.695L141.007 961.695C160.37 951.864 166.944 935.254 166.098 916.301C165.74 908.412 164.145 900.122 161.607 891.74C152.788 862.402 114.387 835.745 112.663 758.364C112.077 732.077 118.683 700.89 125.192 674.14C129.91 654.849 134.564 637.869 136.484 626.713C141.268 598.885 139.641 580.302 126.428 550.779C107.879 509.423 109.766 472.442 118.52 444.029C120.538 437.496 122.946 431.455 125.517 425.878C124.248 432.627 123.304 441.132 122.849 452.165C121.221 492.165 153.374 535.802 159.947 582.829C164.731 617.221 155.033 646.59 144.392 674.11C133.62 701.999 121.872 727.978 123.304 755.344C125.582 798.025 164.145 847.887 173.42 892.665C174.982 900.215 175.6 908.227 175.307 916.332C174.722 932.48 170.426 948.783 162.616 961.726L165.317 961.726L169.743 961.726L176.381 961.726C184.81 943.297 189.789 919.26 180.417 892.202C172.541 855.746 135.931 800.676 130.04 762.925Z" fill="#FEDA00" fill-opacity="0.8"/>
<path d="M127.535 334.011C128.316 331.607 128.805 329.358 129.065 327.201C131.766 305.197 109.409 295.829 93.5604 299.804C79.9899 303.225 71.3009 314.566 67.9164 327.201C65.2479 337.155 65.8663 347.941 70.0318 356.23C73.6115 363.38 79.0463 368.773 85.5549 372.594C99.1579 380.576 117.349 381.47 132.612 376.169C135.671 375.121 138.47 373.919 141.041 372.594C160.404 362.764 166.978 346.153 166.132 327.201C165.774 319.311 164.179 311.022 161.641 302.639C152.821 273.302 114.421 246.645 112.696 169.263C112.11 142.976 118.716 111.789 125.225 85.0399C129.944 65.7484 134.597 48.7682 136.517 37.6124C138.926 23.6831 139.707 12.0342 138.242 0.200455L130.92 0.200454C133.751 19.8926 131.343 36.9036 127.568 52.4354C125.257 61.9271 121.938 72.8672 118.553 85.0091C111.98 108.553 105.276 136.566 105.601 167.322C106.773 273.61 149.404 279.157 149.632 327.201C149.632 327.324 149.632 327.447 149.632 327.57C149.632 354.689 131.733 367.294 110.06 365.475C86.7589 363.503 83.049 341.715 88.3536 329.481C88.7115 328.649 89.102 327.909 89.5251 327.201C96.1313 316.199 110.58 318.079 114.486 323.626C115.299 324.612 115.853 325.876 116.08 327.201C117.252 333.426 112.273 341.931 99.8737 338.88C104.885 350.868 124.574 343.133 127.535 334.011Z" fill="#FEDA00" fill-opacity="0.8"/>
<path d="M60.1054 882.063C75.9862 860.461 92.6805 840.337 99.2541 814.204C107.487 781.353 87.5388 738.332 84.0568 715.774C81.7137 700.612 84.0242 686.375 87.8968 674.017C92.9735 657.838 100.719 644.895 104.233 637.406C113.736 617.252 118.943 595.957 110.937 575.556C88.8081 519.284 94.438 501.811 88.8407 466.032C80.3471 411.886 56.1026 396.077 45.5914 372.594C43.4435 367.849 41.8815 362.764 41.1004 357.001C37.8787 332.779 46.047 312.193 60.1055 293.055C75.9863 271.453 92.6806 251.329 99.2542 225.196C107.488 192.345 87.5389 149.324 84.0569 126.766C81.7138 111.604 84.0243 97.3667 87.8969 85.009C92.9735 68.83 100.719 55.8868 104.233 48.3983C111.653 32.7123 116.404 16.3176 114.354 0.169452L104.787 0.16945C108.269 14.9 107.455 30.4319 97.7574 51.973C92.1601 64.4232 70.5843 101.065 74.164 127.66C79.0779 164.086 101.207 185.473 94.0475 215.982C87.5715 243.502 73.4479 266.245 56.5582 288.464C42.3371 307.201 30.1987 326.923 33.0625 350.838C34.0062 358.758 35.5032 365.907 37.293 372.564C46.4375 406.216 64.1408 426.34 66.2235 459.037C73.0249 565.047 127.729 574.169 97.7573 640.981C92.16 653.431 70.5842 690.073 74.1639 716.668C79.0778 753.094 101.207 774.481 94.0474 804.99C87.5714 832.509 73.4478 855.252 56.5582 877.472C42.337 896.208 30.1987 915.931 33.0624 939.845C34.0062 947.765 35.5031 954.915 37.2929 961.572L45.5263 961.572C43.3785 956.826 41.8164 951.741 41.0354 945.978C37.8788 921.787 46.047 901.201 60.1054 882.063Z" fill="#FEDA00" fill-opacity="0.8"/>
<path d="M18.3211 99.0608L18.6467 100.386C21.4453 111.357 26.0012 121.866 32.5748 131.296C45.2664 149.539 54.8991 169.879 53.337 188.184C50.1478 225.627 31.9891 245.258 13.277 262.669C4.81596 270.528 0.032164 281.283 0.0321626 292.5C21.4452 267.477 53.8577 246.49 58.4137 201.744C64.7595 166.181 41.7193 127.906 18.3211 99.0608Z" fill="#FEDA00" fill-opacity="0.8"/>
<path d="M63.4257 72.1273C53.3375 89.2616 52.1333 117.274 55.8106 134.655C60.4968 156.813 73.7742 193.3 73.7742 216.013C73.7742 263.409 3.74223 282.824 6.89886 345.814C7.41955 356.261 9.14448 364.952 11.5526 372.564C21.4781 403.905 43.3468 416.786 43.9 456.417C44.3231 486.772 37.0334 492.966 20.7946 513.799C39.1162 500.578 46.8613 489.207 51.4823 474.291C61.6031 441.748 31.4361 408.527 19.6232 372.564C16.2062 362.117 13.9933 350.961 14.156 338.603C14.8394 291.484 60.7246 270.312 73.7416 241.313C93.072 198.231 67.591 156.628 62.6771 134.655C58.8045 117.398 59.5204 84.978 73.0582 66.5802C88.0929 54.8081 95.6754 32.3424 94.2109 9.81503C94.0157 6.67168 93.3649 3.40507 92.4537 0.138448L73.286 0.138444C76.1498 8.1509 77.2889 16.4099 77.4516 23.0048C77.9397 47.4736 60.1713 84.2076 -0.000131579 77.1813C20.2739 83.0366 43.3143 80.941 63.4257 72.1273Z" fill="#FEDA00" fill-opacity="0.8"/>
<path d="M12.6916 11.3867C19.6233 14.9615 35.7323 15.4238 39.0843 2.44968C39.2795 1.64843 39.4097 0.908813 39.4422 0.169197L3.74213 0.169189C5.33676 4.94587 8.20058 9.07539 12.6916 11.3867Z" fill="#FEDA00" fill-opacity="0.8"/>
<path d="M73.7738 830.352C93.1041 787.27 67.6232 745.666 62.7093 723.694C58.8367 706.436 59.5526 674.016 73.0904 655.619C88.125 643.846 95.7075 621.381 94.243 598.853C92.7461 576.018 70.9101 547.635 44.095 547.204C19.7206 546.803 9.33949 554.138 4.19776 567.266C0.162477 577.559 1.49664 594.631 12.6587 600.425C19.5903 604 35.6989 604.462 39.0507 591.488C41.3287 582.674 34.1044 577.959 31.6637 577.312C26.9125 575.956 24.8948 576.696 24.8948 576.696C29.1904 577.405 29.4183 581.966 26.8149 584.739C23.2678 588.499 11.4222 588.006 11.5198 576.172C11.65 564.246 34.7552 556.973 50.1153 562.921C71.3005 571.642 77.1581 596.511 77.4835 612.074C77.9717 636.543 60.2034 673.277 0.0322004 666.251C20.3062 672.075 43.314 669.979 63.4253 661.166C53.3371 678.3 52.1329 706.313 55.8102 723.694C60.4964 745.851 73.7738 782.339 73.7738 805.051C73.7738 852.448 3.74198 871.863 6.89861 934.853C7.41929 945.3 9.14422 953.99 11.5524 961.602L19.6554 961.602C16.2385 951.155 14.0256 939.999 14.1883 927.642C14.8717 880.522 60.7568 859.351 73.7738 830.352Z" fill="#FEDA00" fill-opacity="0.8"/>
<path d="M13.277 851.677C4.81596 859.536 0.032164 870.291 0.0321626 881.508C21.4452 856.485 53.8577 835.498 58.4137 790.752C64.7595 755.189 41.7193 716.914 18.3211 688.069L18.6467 689.394C21.4453 700.365 26.0012 710.874 32.5748 720.304C45.2664 738.548 54.8991 758.887 53.337 777.192C50.1478 814.666 31.9891 834.266 13.277 851.677Z" fill="#FEDA00" fill-opacity="0.8"/>
</svg>
