<svg width="210" height="981" viewBox="0 0 210 981" fill="none" xmlns="http://www.w3.org/2000/svg">
<path d="M4.65457 31.568C5.63085 35.2444 6.05389 40.5234 5.85863 45.7081C5.82609 54.8835 4.10133 65.033 -0.649889 75.9681C-26.0657 134.445 20.5353 145.695 17.997 200.433C16.2397 238.454 -3.57874 249.389 -0.877699 272.453C0.749433 286.342 10.9679 344.537 12.0093 384.569C14.0595 463.282 -17.0188 494.673 -20.3707 528.107C-23.9829 564.431 -13.0486 582.217 -5.14075 600.85C-4.03431 603.458 -2.9929 606.098 -2.04916 608.769C0.0335636 614.77 2.9949 622.689 4.62204 632.116C5.53323 638.086 5.8261 641.668 5.8261 646.256C5.79356 655.431 4.0688 665.581 -0.682426 676.516C-26.0982 734.993 20.503 746.242 17.9646 800.98C16.2073 839.002 -3.61128 849.937 -0.910236 873.001C0.651811 886.292 10.0893 940.308 11.814 980.026C15.7192 980.026 18.9734 980.026 21.3164 980.026C21.349 980.214 21.3816 980.372 21.4142 980.56L26.1003 980.56C20.4379 954.668 19.4616 928.493 28.1179 894.054C37.8482 855.31 63.1987 835.074 63.9798 804.28C64.5981 779.676 53.6313 756.329 43.0875 734.396C30.949 709.069 15.1985 677.678 12.0744 647.104C10.2195 628.973 11.2282 613.765 14.157 600.819C16.1746 591.958 19.0711 584.102 22.6182 577.158C43.055 537.125 52.1019 526.567 53.371 501.398C54.6076 476.228 53.3058 467.839 48.5546 453.039C29.5497 393.713 11.8466 358.174 28.1179 293.475C37.8481 254.731 63.1987 234.495 63.9797 203.701C64.598 179.097 53.6312 155.75 43.0874 133.817C30.949 108.49 15.1985 77.0993 12.0744 46.5252C10.2195 28.3944 11.2281 13.1858 14.157 0.239724L11.5536 0.239724L6.70477 0.239725L-5.20574 0.239726C-4.09929 2.8478 -3.05809 5.48725 -2.11435 8.15817C0.0660055 14.2227 2.9949 22.1412 4.65457 31.568Z" fill="#78BFB9" fill-opacity="0.8"/>
<path d="M79.3072 202.884C84.2862 235.406 66.9735 271.762 55.7138 293.538C52.3293 300.074 49.4655 305.321 47.936 308.715C39.5075 327.411 30.4282 355.597 34.9841 384.066C43.0873 434.782 79.893 494.61 73.0265 528.138C66.1275 561.666 49.9211 570.716 39.5726 588.124C37.262 592.02 34.9841 596.294 32.9339 600.881C24.5054 619.672 19.5264 644.181 28.8987 671.77C36.8066 708.818 73.417 765.001 79.3072 803.462C84.2862 835.984 66.9736 872.34 55.7138 894.116C52.3294 900.652 49.4656 905.9 47.9361 909.293C39.9306 927.11 31.3067 953.536 34.4634 980.591L48.587 980.591C45.7558 948.32 54.9002 920.385 64.8583 894.085C75.6299 865.647 87.3777 839.158 85.9458 811.255C83.6678 767.735 45.1049 716.893 35.8303 671.236C34.2682 663.538 33.6499 655.368 33.9428 647.104C34.5285 630.638 38.8242 614.016 46.6345 600.818C55.4535 585.924 68.7308 575.429 86.3363 574.486C122.784 572.57 137.754 581.871 148.753 600.818C150.153 603.207 151.454 605.72 152.756 608.423C155.555 614.236 158.614 630.764 154.806 647.135C151.161 662.752 141.301 678.212 118.879 683.962C93.1052 690.593 68.6332 670.294 70.1302 647.135C70.3254 644.087 70.9438 641.008 72.0828 637.928C80.4463 615.43 109.865 624.134 109.442 635.226C111.427 628.407 104.853 619.609 93.0727 619.043C76.2807 618.258 66.225 632.21 65.0209 647.104C64.3375 655.714 66.5831 664.606 72.2129 671.173C90.5019 692.478 115.657 691.944 136.257 681.26C150.055 674.127 157.702 661.244 160.826 647.104C163.527 634.755 162.779 621.432 159.525 610.088C158.581 606.82 157.377 603.741 155.88 600.818C145.499 580.582 122.426 569.27 98.5398 569.019C89.4279 568.925 80.9669 569.993 73.0591 572.664C74.5886 570.559 76.0529 568.39 77.4197 565.877C87.0848 555.727 93.9515 542.624 98.3122 528.075C108.563 493.793 104.853 451.499 90.7948 420.799C73.0591 382.055 75.6624 352.392 81.7805 326.688C84.091 317.01 87.4104 305.855 90.7948 293.475C97.3684 269.468 104.072 240.905 103.747 209.545C102.575 101.169 59.9442 95.5132 59.7164 46.5255C59.7164 46.3998 59.7164 46.274 59.7164 46.1483C59.7164 18.4965 77.615 5.64476 99.2884 7.49869C122.589 9.50973 126.299 31.7254 120.994 44.2001C120.636 45.0486 120.246 45.8028 119.823 46.5255C113.217 57.7433 98.7678 55.8266 94.8626 50.1705C94.0491 49.165 93.4957 47.8767 93.2679 46.5255C92.0963 40.1781 97.0755 31.5055 109.474 34.6163C104.463 22.3615 84.7744 30.2486 81.8456 39.5497C81.0646 42.0006 80.5763 44.2945 80.316 46.494C77.6149 68.9297 99.9716 78.4821 115.82 74.4286C129.39 70.9407 138.079 59.3773 141.464 46.494C144.132 36.3446 143.514 25.3466 139.348 16.894C135.769 9.60396 130.334 4.10503 123.825 0.208641L68.3403 0.208647C48.9774 10.2324 42.4038 27.1692 43.2499 46.494C43.6078 54.5382 45.2024 62.9909 47.7408 71.5378C56.5598 101.452 94.9603 128.632 96.685 207.534C97.2708 234.338 90.6645 266.137 84.156 293.412C79.4373 313.083 74.7838 330.396 72.8638 341.771C68.08 370.146 69.7071 389.094 82.9194 419.196C101.469 461.365 99.5812 499.072 90.8272 528.044C88.8096 534.705 86.4015 540.864 83.8307 546.552C85.0998 539.67 86.0436 530.998 86.4992 519.748C88.1263 478.962 55.9741 434.468 49.4005 386.517C44.6167 351.449 54.3145 321.504 64.956 293.443C75.7276 265.006 87.4754 238.517 86.0435 210.614C83.7655 167.094 45.2024 116.252 35.9278 70.5951C34.3657 62.8966 33.7476 54.7267 34.0404 46.4626C34.6262 29.9972 38.9217 13.3747 46.732 0.177292L44.0309 0.177292L39.6051 0.177293L32.9665 0.177294C24.5379 18.968 19.559 43.4775 28.9312 71.0665C36.8066 108.239 73.417 164.391 79.3072 202.884Z" fill="#78BFB9" fill-opacity="0.8"/>
<path d="M81.8131 640.223C81.0321 642.674 80.5438 644.967 80.2835 647.167C77.5824 669.603 99.9393 679.155 115.788 675.102C129.358 671.614 138.047 660.05 141.431 647.167C144.1 637.017 143.481 626.02 139.316 617.567C135.736 610.277 130.301 604.778 123.793 600.882C110.19 592.743 91.9989 591.832 76.7364 597.237C73.6774 598.305 70.8787 599.53 68.3078 600.882C48.9449 610.905 42.3713 627.842 43.2174 647.167C43.5753 655.211 45.1699 663.664 47.7083 672.211C56.5273 702.125 94.9278 729.305 96.6525 808.207C97.2383 835.01 90.632 866.81 84.1235 894.085C79.4048 913.755 74.7513 931.069 72.8313 942.444C70.4231 956.647 69.642 968.525 71.1064 980.591L78.4285 980.591C75.5973 960.512 78.0056 943.167 81.7805 927.33C84.091 917.652 87.4105 906.497 90.7949 894.116C97.3685 870.109 104.072 841.546 103.747 810.187C102.575 701.811 59.9443 696.155 59.7165 647.167C59.7165 647.041 59.7165 646.916 59.7165 646.79C59.7165 619.138 77.6151 606.286 99.2885 608.14C122.589 610.151 126.299 632.367 120.994 644.842C120.636 645.69 120.246 646.444 119.823 647.167C113.217 658.385 98.7678 656.468 94.8627 650.812C94.0491 649.806 93.4957 648.518 93.2679 647.167C92.0964 640.82 97.0756 632.147 109.474 635.258C104.463 623.034 84.7745 630.922 81.8131 640.223Z" fill="#78BFB9" fill-opacity="0.8"/>
<path d="M149.242 81.4048C133.361 103.432 116.667 123.951 110.093 150.597C101.86 184.094 121.809 227.959 125.291 250.961C127.634 266.421 125.323 280.938 121.451 293.538C116.374 310.035 108.629 323.232 105.114 330.868C95.6118 351.418 90.405 373.131 98.4105 393.933C120.539 451.311 114.91 469.127 120.507 505.609C129 560.818 153.245 576.938 163.756 600.882C165.904 605.721 167.466 610.906 168.247 616.782C171.469 641.48 163.3 662.47 149.242 681.983C133.361 704.01 116.667 724.529 110.093 751.176C101.86 784.672 121.809 828.538 125.291 851.539C127.634 866.999 125.323 881.516 121.451 894.117C116.374 910.613 108.629 923.811 105.114 931.447C97.6946 947.441 92.9434 964.157 94.9936 980.623L104.561 980.623C101.079 965.603 101.893 949.766 111.59 927.802C117.188 915.107 138.763 877.746 135.184 850.628C130.27 813.486 108.141 791.679 115.3 760.571C121.776 732.511 135.9 709.321 152.789 686.665C167.01 667.56 179.149 647.45 176.285 623.066C175.341 614.99 173.844 607.7 172.054 600.913C162.91 566.6 145.207 546.081 143.124 512.742C136.323 404.648 81.6185 395.347 111.59 327.223C117.188 314.528 138.763 277.167 135.184 250.049C130.27 212.908 108.141 191.101 115.3 159.993C121.776 131.932 135.9 108.742 152.789 86.0868C167.01 66.9819 179.149 46.8714 176.285 22.4876C175.341 14.412 173.844 7.122 172.054 0.334734L163.821 0.334735C165.969 5.1738 167.531 10.3585 168.312 16.2345C171.469 40.9012 163.3 61.8914 149.242 81.4048Z" fill="#78BFB9" fill-opacity="0.8"/>
<path d="M191.025 879.788L190.7 878.436C187.901 867.25 183.345 856.535 176.772 846.92C164.08 828.318 154.447 807.579 156.01 788.914C159.199 750.735 177.358 730.719 196.07 712.966C204.531 704.953 209.314 693.986 209.314 682.549C187.901 708.064 155.489 729.462 150.933 775.088C144.587 811.349 167.627 850.376 191.025 879.788Z" fill="#78BFB9" fill-opacity="0.8"/>
<path d="M145.922 907.251C156.01 889.78 157.214 861.217 153.537 843.495C148.851 820.902 135.573 783.698 135.573 760.539C135.573 712.211 205.605 692.415 202.449 628.188C201.928 617.535 200.203 608.674 197.795 600.913C187.869 568.956 166.001 555.822 165.447 515.412C165.024 484.461 172.314 478.145 188.553 456.904C170.231 470.384 162.486 481.979 157.865 497.187C147.744 530.369 177.911 564.243 189.724 600.913C193.141 611.565 195.354 622.94 195.191 635.54C194.508 683.585 148.623 705.173 135.606 734.741C116.276 778.67 141.757 821.09 146.671 843.495C150.543 861.091 149.827 894.148 136.289 912.907C121.255 924.91 113.672 947.817 115.137 970.787C115.332 973.992 115.983 977.323 116.894 980.654L136.062 980.654C133.198 972.484 132.059 964.063 131.896 957.338C131.408 932.389 149.176 894.933 209.348 902.098C189.074 896.127 166.033 898.264 145.922 907.251Z" fill="#78BFB9" fill-opacity="0.8"/>
<path d="M196.656 969.185C189.724 965.539 173.615 965.068 170.263 978.297C170.068 979.114 169.938 979.869 169.905 980.623L205.605 980.623C204.011 975.752 201.147 971.541 196.656 969.185Z" fill="#78BFB9" fill-opacity="0.8"/>
<path d="M135.574 134.132C116.243 178.06 141.724 220.481 146.638 242.885C150.511 260.481 149.795 293.538 136.257 312.297C121.222 324.3 113.64 347.207 115.104 370.177C116.601 393.461 138.437 422.401 165.253 422.841C189.627 423.25 200.008 415.771 205.15 402.385C209.185 391.89 207.851 374.482 196.689 368.575C189.757 364.93 173.649 364.458 170.297 377.687C168.019 386.674 175.243 391.482 177.684 392.142C182.435 393.524 184.453 392.77 184.453 392.77C180.157 392.047 179.929 387.397 182.533 384.569C186.08 380.735 197.925 381.238 197.828 393.304C197.698 405.465 174.592 412.88 159.232 406.816C138.047 397.923 132.189 372.565 131.864 356.697C131.376 331.748 149.144 294.292 209.315 301.456C189.041 295.517 166.034 297.654 145.922 306.641C156.01 289.17 157.215 260.607 153.537 242.885C148.851 220.292 135.574 183.088 135.574 159.929C135.574 111.602 205.606 91.8056 202.449 27.5781C201.928 16.9258 200.203 8.0646 197.795 0.303253L189.692 0.303254C193.109 10.9555 195.322 22.3305 195.159 34.9309C194.476 82.9759 148.591 104.563 135.574 134.132Z" fill="#78BFB9" fill-opacity="0.8"/>
<path d="M196.071 112.387C204.532 104.375 209.315 93.4083 209.315 81.9705C187.902 107.486 155.49 128.884 150.934 174.51C144.588 210.771 167.628 249.798 191.026 279.209L190.701 277.858C187.902 266.672 183.346 255.957 176.773 246.341C164.081 227.739 154.448 207 156.011 188.335C159.2 150.126 177.358 130.141 196.071 112.387Z" fill="#78BFB9" fill-opacity="0.8"/>
</svg>
