<svg width="44" height="44" viewBox="0 0 44 44" fill="none" xmlns="http://www.w3.org/2000/svg">
<path d="M44 22C44 9.84974 34.1503 0 22 0C9.84974 0 0 9.84974 0 22C0 34.1503 9.84974 44 22 44C34.1503 44 44 34.1503 44 22Z" fill="#675DA9"/>
<path d="M32.7741 11.1691C32.0463 10.5001 29.1002 8.35799 22.533 8.32865C22.533 8.32865 14.792 7.85914 11.0184 11.3217C8.91731 13.4227 8.17785 16.4922 8.10155 20.3069C8.02526 24.1157 7.92549 31.2581 14.8096 33.1948H14.8155L14.8096 36.1468C14.8096 36.1468 14.7685 37.3441 15.555 37.5847C16.5057 37.8781 17.0691 36.9684 17.9788 35.9883C18.4776 35.4484 19.1642 34.662 19.6865 34.0575C24.3934 34.4507 28.0145 33.547 28.4252 33.4119C29.376 33.1009 34.7577 32.4142 35.6321 25.2719C36.536 17.9241 35.192 13.2702 32.7741 11.1691ZM33.5722 24.7555C32.8327 30.7181 28.4722 31.0938 27.6681 31.352C27.3278 31.4635 24.1469 32.2558 20.1443 31.9917C20.1443 31.9917 17.163 35.5893 16.2358 36.5225C16.089 36.6691 15.9188 36.7278 15.8073 36.6985C15.6488 36.6574 15.6019 36.4696 15.6077 36.1937C15.6077 35.7947 15.6312 31.2816 15.6312 31.2816C15.6253 31.2816 15.6253 31.2816 15.6312 31.2816C9.80351 29.6676 10.1439 23.5876 10.2085 20.4066C10.273 17.2258 10.8716 14.6141 12.6499 12.8594C15.8366 9.97195 22.4156 10.4003 22.4156 10.4003C27.9674 10.4238 30.626 12.0964 31.2423 12.6539C33.2905 14.4146 34.3352 18.6108 33.5722 24.7555Z" fill="white"/>
<path d="M25.2386 20.5182C25.0449 20.5182 24.8806 20.3656 24.8688 20.166C24.8043 18.9042 24.2116 18.2881 23.0026 18.2235C22.7972 18.2118 22.6387 18.0357 22.6504 17.8303C22.6621 17.6248 22.8382 17.4664 23.0436 17.4782C24.6399 17.5662 25.532 18.4817 25.6142 20.125C25.6259 20.3304 25.4675 20.5065 25.2621 20.5123C25.2503 20.5182 25.2445 20.5182 25.2386 20.5182Z" fill="white"/>
<path d="M27.14 21.1521H27.1341C26.9287 21.1462 26.7644 20.9761 26.7703 20.7706C26.7996 19.503 26.4357 18.476 25.661 17.6308C24.8922 16.7857 23.83 16.3279 22.4273 16.2282C22.2219 16.2106 22.0694 16.0345 22.087 15.8291C22.1046 15.6237 22.2806 15.4711 22.4861 15.4887C24.0706 15.6061 25.3207 16.1577 26.2127 17.1319C27.1107 18.112 27.545 19.3386 27.5156 20.7882C27.5098 20.9937 27.3395 21.1521 27.14 21.1521Z" fill="white"/>
<path d="M29.0884 21.915C28.883 21.915 28.7187 21.7507 28.7187 21.5452C28.7011 19.274 28.0496 17.5427 26.7233 16.2457C25.4145 14.9663 23.7536 14.3149 21.7994 14.2973C21.594 14.2973 21.4296 14.1271 21.4296 13.9217C21.4296 13.7163 21.5998 13.5519 21.7994 13.5519C23.9532 13.5695 25.7842 14.2914 27.2338 15.7117C28.6893 17.132 29.4347 19.0921 29.4581 21.5335C29.464 21.7448 29.2996 21.915 29.0884 21.915C29.0943 21.915 29.0943 21.915 29.0884 21.915ZM23.0905 25.1134C23.0905 25.1134 23.6128 25.1604 23.8945 24.8141L24.4403 24.1275C24.7044 23.787 25.3441 23.5699 25.9662 23.9162C26.3125 24.1098 26.9404 24.4972 27.3278 24.7847C27.7444 25.0899 28.5896 25.7942 28.5955 25.8C29.0003 26.1405 29.0943 26.6393 28.8185 27.1734C28.8185 27.1734 28.8185 27.1793 28.8185 27.1851C28.5367 27.684 28.1553 28.1535 27.6799 28.5877C27.674 28.5877 27.674 28.5936 27.6682 28.5936C27.2749 28.9223 26.8876 29.11 26.512 29.1512C26.465 29.1629 26.4122 29.1629 26.3418 29.1629C26.1775 29.1629 26.0131 29.1395 25.8488 29.0866L25.8371 29.069C25.2502 28.9047 24.2759 28.4939 22.6562 27.5959C21.5998 27.0149 20.7253 26.4222 19.98 25.8294C19.5868 25.5184 19.1877 25.1721 18.7769 24.7613C18.7651 24.7495 18.7475 24.7319 18.7358 24.7202C18.7241 24.7085 18.7065 24.6909 18.6947 24.6791C18.683 24.6674 18.6654 24.6498 18.6537 24.6381C18.6419 24.6263 18.6243 24.6087 18.6126 24.5969C18.2076 24.1862 17.8555 23.787 17.5445 23.3939C16.9517 22.6544 16.359 21.774 15.778 20.7177C14.88 19.092 14.4692 18.1178 14.3049 17.5368L14.2873 17.525C14.2344 17.3608 14.2109 17.1964 14.2109 17.032C14.2109 16.9616 14.2109 16.9088 14.2227 16.8619C14.2697 16.4804 14.4574 16.0989 14.7803 15.7057C14.7803 15.6998 14.7861 15.6998 14.7861 15.694C15.2204 15.2127 15.6899 14.8371 16.1887 14.5554C16.1887 14.5554 16.1946 14.5554 16.2005 14.5554C16.7287 14.2796 17.2275 14.3735 17.5738 14.7784C17.5738 14.7784 18.284 15.6294 18.5891 16.0461C18.8767 16.4393 19.264 17.0614 19.4577 17.4077C19.804 18.0297 19.5868 18.6695 19.2464 18.9336L18.5598 19.4794C18.2135 19.761 18.2604 20.2834 18.2604 20.2834C18.2604 20.2834 19.2758 24.1451 23.0905 25.1134Z" fill="white"/>
</svg>
