<svg width="36" height="30" viewBox="0 0 36 30" fill="none" xmlns="http://www.w3.org/2000/svg">
<g clip-path="url(#clip0_2_684)">
<path d="M29.1258 14.7708L12.7003 8.28654C12.4825 8.20051 12.2257 8.21198 12.0206 8.31688C11.8155 8.42179 11.6909 8.60534 11.6909 8.80282V21.7714C11.6909 21.9689 11.8155 22.1525 12.0206 22.2574C12.1343 22.3156 12.264 22.345 12.3941 22.345C12.4986 22.345 12.6034 22.326 12.7003 22.2877L29.1258 15.8034C29.3685 15.7076 29.5226 15.507 29.5226 15.2871C29.5226 15.0672 29.3685 14.8666 29.1258 14.7708ZM13.0972 20.8566V9.71762L27.2054 15.2871L13.0972 20.8566ZM18 0.603516C8.07476 0.603516 0 7.19055 0 15.2871C0 23.3837 8.07476 29.9707 18 29.9707C27.9252 29.9707 36 23.3837 36 15.2871C36 7.19055 27.9252 0.603516 18 0.603516ZM18 28.8236C8.85016 28.8236 1.40625 22.7512 1.40625 15.2871C1.40625 7.82315 8.85016 1.75067 18 1.75067C27.1498 1.75067 34.5938 7.82315 34.5938 15.2871C34.5938 22.7512 27.1498 28.8236 18 28.8236Z" fill="#033476"/>
</g>
<defs>
<clipPath id="clip0_2_684">
<rect width="36" height="29.3672" fill="white" transform="translate(0 0.603516)"/>
</clipPath>
</defs>
</svg>
